<?xml version="1.0" encoding="UTF-8"?>
<svg id="_圖層_1" data-name="圖層 1" xmlns="http://www.w3.org/2000/svg" version="1.1" xmlns:xlink="http://www.w3.org/1999/xlink" viewBox="0 0 127.5 127.5">
  <defs>
    <style>
      .cls-1 {
        fill: gold;
      }

      .cls-1, .cls-2, .cls-3, .cls-4 {
        stroke-width: 0px;
      }

      .cls-2 {
        fill: #231815;
      }

      .cls-5 {
        filter: url(#drop-shadow-2);
      }

      .cls-3, .cls-4 {
        fill: #fff;
      }

      .cls-6 {
        fill: none;
        stroke: #231815;
      }

      .cls-4 {
        filter: url(#drop-shadow-1);
      }
    </style>
    <filter id="drop-shadow-1" filterUnits="userSpaceOnUse">
      <feOffset dx=".9" dy="-.9"/>
      <feGaussianBlur result="blur" stdDeviation=".8"/>
      <feFlood flood-color="#231815" flood-opacity=".8"/>
      <feComposite in2="blur" operator="in"/>
      <feComposite in="SourceGraphic"/>
    </filter>
    <filter id="drop-shadow-2" filterUnits="userSpaceOnUse">
      <feOffset dx=".9" dy="-.9"/>
      <feGaussianBlur result="blur-2" stdDeviation=".7"/>
      <feFlood flood-color="#231815" flood-opacity=".8"/>
      <feComposite in2="blur-2" operator="in"/>
      <feComposite in="SourceGraphic"/>
    </filter>
  </defs>
  <rect class="cls-1" x=".5" y=".5" width="126.5" height="126.5"/>
  <rect class="cls-3" x=".5" y="92" width="126.5" height="35.1"/>
  <rect class="cls-6" x=".5" y=".5" width="126.5" height="126.5"/>
  <polygon class="cls-4" points="122 14 114.9 14 114.9 7 103.8 7 103.8 14 96.8 14 96.8 25.1 103.8 25.1 103.8 32.1 114.9 32.1 114.9 25.1 122 25.1 122 14"/>
  <g class="cls-5">
    <path class="cls-3" d="M25.4,9.4c-.2,3.5-2.2,11.7-16.6,11.7h-3.1v12.3h17.1v50.6h16.3V8.4h-13.7v1Z"/>
    <path class="cls-3" d="M64.6,69c2-2.4,5.9-5.3,12.2-9.7l2.6-1.8c7.5-5.2,15.5-11.8,15.5-24.8s-10.4-24.3-25.8-24.3-24.6,2.6-24.6,27v1.1h15.9v-1.1c.1-6.4,1-12.7,9.3-12.7s8.9,4.9,8.9,9.4c0,7.6-4.7,11.1-17.2,20.4l-.5.4c-16.1,11.9-16.7,21.5-17.2,30v1.1c0,0,51.3,0,51.3,0v-15h-30.3Z"/>
  </g>
  <g>
    <path class="cls-2" d="M27.5,114.4c0,0,0,.1-.1.1,0,0-.2.1-.3.1h-3.7v1.6h3.9v2.8h-3.9v3.9h-2.8v-3.9h-4.6v-2.8h4.6v-1.6h-3.9c-.2,0-.3,0-.3-.1,0,0-.1,0-.1-.1v-11.9c0-.2,0-.2.1-.2,0,0,.2,0,.3,0h3.9v-1.4h-4.4v-2.8h4.4v-2.3h2.8v2.3h3.9v2.8h-3.9v1.4h3.7c.2,0,.3,0,.3,0,0,0,.1,0,.1.2v11.9ZM20.6,107.1v-2.5h-1.6l.2.2v2.3h1.4ZM20.6,112.4v-2.5h-1.4v2.3h-.2l.2.2h1.4ZM24.8,107.1v-2.5h-1.4v2.5h1.4ZM24.8,109.8h-1.4v2.5h1.4v-2.5ZM43.6,100.6l-2.3,1.1-.5-.9h-4.1v1.1h4.6c.3,0,.6,0,.8.2.2.2.3.5.3.9v17.7c0,.9-.4,1.6-.9,2.1-.6.5-1.4.7-2.3.7-.3,0-.6-.2-.9-.2-.4-.2-.7-.2-.9-.2l-.5-3.4c.3.2.6.4,1,.5.3.2.6.2,1,.2,0-.2.2-.3.2-.5,0-.2.2-.4.2-.5v-3.7h-2.8v6.9h-2.8v-6.9h-2.8v6.9h-3v-19.5c0-.4,0-.7.2-.9.2-.2.5-.2.9-.2h4.6v-1.1h-5.5v-2.8h5.5v-2.1h2.8v2.1h2.5c-.2-.2-.3-.5-.5-.7-.2-.2-.3-.5-.5-.7l2.3-1.4c.5.8,1,1.6,1.5,2.5.5.8,1,1.8,1.5,2.8ZM33.9,107.5v-2.5h-2.8v2.5h2.8ZM33.9,113v-2.8h-2.8v2.8h2.8ZM39.5,107.5v-2.5h-2.8v2.5h2.8ZM39.5,113v-2.8h-2.8v2.8h2.8Z"/>
    <path class="cls-2" d="M56.7,121h-4.4v-16.6c-1.6,1.5-3.5,2.6-5.7,3.3v-4c1.2-.4,2.4-1.1,3.7-2.1,1.3-1,2.3-2.3,2.8-3.7h3.6v23.1Z"/>
    <path class="cls-2" d="M78.1,116.9v4.1h-15.4c.2-1.5.7-3,1.5-4.4.8-1.4,2.5-3.2,5-5.5,2-1.8,3.2-3.1,3.7-3.8.6-.9.9-1.8.9-2.7s-.3-1.7-.8-2.3c-.5-.5-1.3-.8-2.2-.8s-1.7.3-2.2.8c-.5.6-.9,1.5-.9,2.8l-4.4-.4c.3-2.4,1.1-4.2,2.5-5.2,1.4-1.1,3.1-1.6,5.2-1.6s4,.6,5.3,1.8c1.3,1.2,1.9,2.7,1.9,4.6s-.2,2-.6,3c-.4.9-1,1.9-1.8,2.9-.5.7-1.5,1.7-2.9,2.9-1.4,1.3-2.3,2.1-2.6,2.5-.4.4-.7.8-.9,1.2h8.7Z"/>
    <path class="cls-2" d="M96.3,110.5l-2.8.7-.2-1.4-2.1.2v12.9h-2.8v-12.4l-3.9.7c-.2-.5-.3-1-.3-1.5-.2-.5-.3-1-.3-1.5l2.1-.2c.3-.4.7-.8,1-1.1.3-.5.6-.8,1-1.1-.8-.8-1.5-1.4-2.3-2-.8-.5-1.5-1-2.3-1.3l1.4-2.8c.2,0,.5.2.7.5.3.2.5.3.7.5.5-.9.9-1.8,1.4-2.6.5-.9.9-1.8,1.4-2.6l2.5,1.4c-.5.9-1.1,1.8-1.6,2.8-.5.9-1.1,1.8-1.6,2.8.2,0,.5.2.7.5.2.2.5.3.7.5.3-.6.6-1.3.9-2,.3-.6.6-1.3.9-2l2.8.9c-.3,1.1-.9,2.3-1.8,3.7-1,1.4-1.8,2.5-2.5,3.4l2.3-.2c-.2-.2-.2-.5-.2-.7,0-.2-.2-.5-.2-.7l2.5-.9c.4.9.7,1.9,1,2.9.3.9.7,1.9,1,2.9ZM87.8,112.6c-.2,1.5-.5,2.9-.8,4.5-.2,1.5-.5,2.9-.8,4.5l-2.5-.7c.2-1.2.5-2.7.8-4.4.3-1.7.5-3.1.6-4.4l2.8.5ZM111.7,121.1l-2.3,2.1c-.8-.6-1.7-1.3-2.5-2s-1.6-1.4-2.3-2.2c-.9.8-1.9,1.6-2.9,2.3-1,.6-2.1,1.2-3.3,1.8l-2.1-2.1c-.2.2-.3.5-.3.7-.2.2-.3.5-.3.7l-3-.7c.3-.6.6-1.2.8-1.8.3-.7.6-1.3.8-1.8l-1.6.2-1.2-6,2.8-.7.7,4.6c.8-2.3,1.3-4.6,1.7-6.9.4-2.3.6-4.6.6-6.9v-2.8h-3v-3h13.8c.2,0,.5.1.7.3.2.2.4.5.5.8,0,.5-.3,1.5-.7,3-.3,1.5-.5,2.5-.7,3.2h1.6l1.8,1.4c-.2,2.3-.7,4.4-1.5,6.2-.8,1.8-1.8,3.6-3.1,5.5.8.7,1.6,1.3,2.4,2,.8.7,1.7,1.3,2.6,2ZM102.7,116.7c-.8-1.1-1.5-2.4-2-3.7-.5-1.2-1-2.5-1.3-3.9,0,1.4-.4,3.3-1.1,5.9-.7,2.5-1.3,4.4-1.8,5.9,1.1-.6,2.2-1.3,3.2-2,1.1-.7,2.1-1.4,3-2.2ZM105.7,100c0-.2-.2-.2-.2-.2,0,0-.2,0-.2,0h-5.1l-.2,4.4h4.8l.9-4.1ZM108,107.1h-6c.2,1.2.6,2.5,1,3.8.5,1.3,1,2.6,1.7,3.8.8-1.1,1.4-2.3,2-3.7.5-1.4,1-2.7,1.3-3.9Z"/>
  </g>
</svg>