<?xml version="1.0" encoding="UTF-8"?>
<svg id="_圖層_1" data-name="圖層 1" xmlns="http://www.w3.org/2000/svg" version="1.1" viewBox="0 0 60 60">
  <defs>
    <style>
      .cls-1 {
        fill: #000;
      }

      .cls-1, .cls-2 {
        stroke-width: 0px;
      }

      .cls-2 {
        fill: #fff;
      }
    </style>
  </defs>
  <g>
    <circle class="cls-1" cx="30.79" cy="30.46" r="23.56"/>
    <g>
      <path class="cls-1" d="M24.8,48.54c-.46-.07-1.04-.31-1.42-.6-.37-.34-.54-.72-.27-.99l.03-.48c.16.09.44.25.75.43.33.15.69.33.97.52.56.39.87.81-.07,1.12Z"/>
      <path class="cls-2" d="M24.03,51.68c-.78-.55-.06-.5.17-.7.38.16.78.25,1.17.38.28.43-.79.38-1.33.32Z"/>
      <path class="cls-1" d="M21.3,57.95l.41.33c-.41-.33-1.05-.65-1.49-.8.1-.35,1.06-.39,1.88.08-.27.19-1.16-.11-.8.39Z"/>
      <path class="cls-1" d="M10.94,39.11c-.55.1-1.07.56-1.46,1.28-.2.36-.36.78-.48,1.24-.06.23-.11.47-.15.72-.03.24-.04.49-.04.74-.63.11-1.28.21-1.92.3.09-.84-.31-1.79-.76-2.83-.4-1.05-1-2.16-1.24-3.22-.58-.73-.06,2.15-.99.13.19-.31.68-.25.73-.73-.48-.87-.96-1.01-1.41-1.47-.22-.23-.43-.54-.6-1.08-.08-.27-.17-.59-.2-.98-.03-.4-.03-.86-.01-1.42.27-.5.52-.99.82-1.46,0-3.66.39-7.49,1.68-11.09,1.26-3.59,3.44-6.89,6.33-9.06.08-.38.32-.81.67-1.28.18-.23.37-.47.6-.71.23-.22.49-.45.75-.68.53-.45,1.06-.96,1.63-1.37.56-.42,1.08-.85,1.51-1.27l.31.44c.33-.75,1.2-1.06,2.09-1.33.89-.29,1.91-.32,2.64-.67.51,0,1.01,0,1.52.05.72.61-3.65,1.73-1.99,2.53.74-.07,1.35-.28,1.92-.55.57-.24,1.11-.52,1.63-.81.26-.14.53-.28.8-.41.27-.12.55-.2.83-.26.57-.13,1.17-.17,1.81-.02,1.21.02,1.73-.08,2.14-.27.41-.18.72-.44,1.48-.54.41-.53-.49-.55-.32-1.18,1.44-.02,2.54.12,3.4.5.87.36,1.53.74,2.13,1.23.6.48,1.15.96,1.83,1.37.67.46,1.46.89,2.57,1.25.16-.17,1.21-.11,1.9-.25.67-.14.98-.5-.59-1.62-.61-.1-1.25-.11-1.86-.14l-.94-.99c.66.23,1.58.57,2.34.78.73.27,1.31.39,1.3.04.42,1.28,2.68,1.98,4.28,2.7.78.36,1.41.66,1.52.86.11.21-.31.3-1.54.36-.39-.44-.72-.82-1.04-1.08-.33-.26-.63-.45-.92-.59-.6-.27-1.17-.4-2.03-.35,2.23,1.32,4.1,2.89,5.58,4.64.79.82,1.41,1.75,2.07,2.59.34.41.6.89.9,1.31.29.44.6.85.88,1.28.46.17.94.36,1.41.56-.36.27-.39.91-.29,1.7.06.82.33,1.76.58,2.68.47.69.76,1.72,1.09,1.34.16.05.11-.36-.02-.95-.07-.3-.15-.64-.24-.99-.11-.35-.23-.71-.34-1.05-.41-1.35-.59-2.49.92-1.18.22.57.44,1.14.63,1.71.16.59.3,1.18.44,1.77l.19.88c.03.3.07.59.1.88.06.58.11,1.16.14,1.71-.01,1.13-.08,2.19-.24,3.14-.21.96-.47,1.81-.76,2.51-.16-1.03-.18-1.92-.37-2.79-.27-.87-.58-1.75-1.42-2.64-1.36-3.3-2.97-6.52-5.23-9.27-.14-.17-.27-.35-.42-.52l-.46-.48-.92-.94c-.64-.6-1.34-1.13-2.02-1.65-.74-.45-1.45-.93-2.21-1.27-.39-.17-.78-.33-1.16-.47-.38-.16-.77-.29-1.18-.36.08-.65-1.41-1.63-.68-1.99-.41-.67-2.22-.8-2.42-1.79-2.73-.37-5.6-.61-8.43-.52-2.82.08-5.6.53-7.88,1.41.92.52.3.98-.57,1.51-.43.29-.94.58-1.4.87-.46.28-.82.65-1.01.94-.34,0-.71.1-1.08.24-.37.14-.71.4-1.06.65-.35.26-.69.53-1.02.81-.3.31-.6.6-.87.87.06.32-.56,1.02-.08,1.18.33-.44.64-.66.97-.85.34-.19.68-.36,1.18-.62.09.3.02.53-.16.73-.16.22-.43.4-.76.59-.32.19-.71.36-1.08.58-.35.24-.71.49-.99.79l.12-1.08c-.98,1-2.35,1.89-3.52,3.02-.54.58-1.14,1.15-1.47,1.83-.34.67-.62,1.35-.6,2.07.63-.55,1.32-1.04,1.95-1.51-.48,1.5-1.39,2.99-1.94,4.56-.28.78-.54,1.55-.56,2.3-.04.74-.03,1.43.32,2.03.1-.51.24-1.09.33-1.69.09-.6.15-1.21.32-1.74.15-.53.31-.98.53-1.27.22-.29.53-.39.88-.26.19.09.26.28.29.55.04.26.02.59-.04.93-.06.34-.17.7-.3,1.04-.09.34-.2.66-.33.91-.6,1.07-.67,2.19-.68,3.24.04.53.15,1.04.25,1.54.06.25.11.49.17.74.08.24.17.47.25.71.17.47.31.93.45,1.38.18.45.32.89.42,1.35.08.47.19.92.24,1.41.06.49,0,1.03-.03,1.6Z"/>
      <path class="cls-1" d="M11.92,32.71c-.12-.83-.25-1.36-.49-1.73-.23-.37-.51-.59-.74-.81-.24-.22-.48-.44-.63-.83-.14-.39-.26-.97-.04-1.84.77.53,1.6-1.03,2-2.04-.05-.29-.05-.58,0-.87.07-.28.17-.56.27-.82.22-.54.47-1.04.69-1.46.44-.51,1.26.02.79,1.1-.31.27-.57.58-.79.92-.11.17-.22.35-.3.54-.07.19-.13.39-.18.59-.1.4-.19.81-.25,1.23,0,.42-.01.85-.02,1.27v.63s.05.62.05.62c.03.41.04.81.01,1.21.05.79-.08,1.55-.37,2.3Z"/>
      <path class="cls-2" d="M8.16,36.77c-.65-2,1.38-1.61.61-3.43.56.34.6.59.55.99-.08.4-.18.95.07,1.81l-.81-.88-.41,1.52Z"/>
      <path class="cls-1" d="M11.92,21.37c.11-.28.27-.64.51-.99.26-.34.57-.69.89-.98.16-.15.32-.28.48-.39.17-.1.35-.18.51-.24.33-.11.62-.11.84.03.17-.08.44.47.64-.13-.9.51-2.46,2.85-3.87,2.69Z"/>
      <path class="cls-2" d="M6.04,25.46c0-.81.17-1.63.5-2.81-.06.84.17,1.88-.5,2.81Z"/>
      <path class="cls-1" d="M10.9,19c-.83-.18.41-1.06.59-1.37.23-.16.49-.29.73-.43-.31.67-.62,1.53-1.32,1.8Z"/>
      <path class="cls-1" d="M19.83,13.06c.81-.3.56.15.35.55-.21.4-.38.74.47.31-.28.23-.6.41-.86.68-.34-.26-.69-.52-1.05-.77l.52-.41.56-.36Z"/>
      <path class="cls-1" d="M22.56,12.83c.15-.23.32-.41.55-.56.25-.12.57-.19.99-.21l-.25.58c-.1.14-.29.11-.52.08-.23-.02-.5-.02-.78.12Z"/>
      <path class="cls-1" d="M19.26,11.4c.62-.69.8-.12,1.41-.13-.11.44-2.1.68-1.41.13Z"/>
      <path class="cls-1" d="M26.34,1c-.47.6-1.26.76-2.17,1.03-.91.26-1.99.4-2.91.94.92-.53,1.61-.87,2.33-1.23.37-.17.75-.34,1.19-.48.45-.11.95-.2,1.56-.25Z"/>
      <path class="cls-1" d="M35.59,47.96c.7.22,1.29-.36,1.58-.75l-.41-.22-.56.52c-.19.17-.4.3-.6.45Z"/>
      <path class="cls-1" d="M26.94,47.69c-.44.49-.37.67-.04.88.33.2.91.33,1.5.87.41.15.86.12,1.3.09.44-.05.88-.08,1.31-.2.86-.26,1.7-.46,2.51-.61l.86-.78c-.49-.03-1.06-.05-1.67-.03-.61-.03-1.27-.08-1.93-.07-.66-.09-1.34-.08-1.98-.12-.64-.08-1.28-.03-1.85-.03Z"/>
      <path class="cls-2" d="M24.12,53.01c.34.22.74.37,1.16.47.42.1.85.16,1.29.13.87-.04,1.65-.08,2.22-.08-.47-.03-.96-.19-1.46-.28-.5-.12-1.02-.17-1.5-.33-.96-.3-1.87-.5-2.46-.8-.24.19.41.65.75.89Z"/>
      <path class="cls-1" d="M46.63,37.91c-.21.45-.46.93-.83,1.37-.34.46-.68.94-1.08,1.39-.19.23-.36.47-.52.73-.17.24-.36.48-.51.74-.15.26-.28.54-.4.84-.14.28-.25.57-.33.9.96-.51,1.2-.3,2.52-1.41.17.97-.35,1.47-1,1.81-.35.15-.73.27-1.09.41-.36.14-.69.32-1,.54,1.22-.49.31,1.01-.54,1.78-.51.19-1.06.44-1.63.75-.61.24-1.24.55-1.9.84-1.35.52-2.81,1.05-4.23,1.29-.28.18-.76.31-1.3.41-.55.04-1.16.07-1.72.11-1.1.03-2,.1-1.76.88-.23,0-.44,0-.62-.04-.18-.04-.34-.11-.49-.18-.29-.14-.51-.32-.71-.51-.4-.38-.72-.78-1.29-1.13-.51.09-1.01.11-1.47,0-.45-.13-.87-.33-1.25-.57-.4-.22-.72-.58-1.04-.91-.31-.36-.63-.67-.89-1.07-.27-.39-.52-.77-.8-1.11-.28-.34-.51-.73-.82-1.03-.15-.15-.31-.3-.48-.43-.17-.14-.33-.29-.52-.41-.37-.26-.85-.42-1.36-.59.81-.48-.58-1.71-.9-2.37-.23-.32-.54-.74-.82-1.23-.3-.47-.65-.94-.93-1.38-.3-.43-.65-.75-.95-.92-.3-.16-.62-.13-.93.23-.18.39-.08.75.09,1.14.19.37.43.78.77,1.14.33.37.67.75.91,1.17.28.4.5.83.55,1.37.1.92.08,1.22-.18,1.21-.26,0-.64-.39-1.08-.86-.22-.24-.47-.49-.7-.76-.21-.27-.43-.54-.64-.76-.43-.44-.86-.72-1.19-.56.49.29-.52,1.22.74,2.32-1.19-1.24-1.37-.76-1.44-.01-.09.74.01,1.71-.91,1.18.42,1.02.79,1.74,1.03,2.34.27.58.47.99.58,1.38.24.8.18,1.48.44,3,.59.43,1.04.65,1.42.73.38.07.67,0,.92-.1.49-.21.8-.62,1.33-.69.34.13.64.29.92.47.29.16.57.33.83.52.52.36.96.83,1.44,1.23.48.4.96.8,1.47,1.15.5.36,1.09.56,1.7.7-.64.39-.78.78-.53,1.17.25.37.86.82,1.7,1.09,1.66.64,4.08.91,5.64.95,1.01.08,1.61,0,1.99-.18.38-.2.55-.47.72-.73.17-.26.35-.52.73-.72.38-.21.96-.28,1.96-.41,1.07.4.13.95-.82,1.45-.93.44-1.87.88-.39,1.41.67-.17,1.31-.46,1.95-.71.56-.56,1.03-1.13,1.48-1.75.45-.62.91-1.21,1.49-1.7.79-.22,1.92-.71,2.09-.38-1.39.92-.7,1.62,1.23,1.45.64-.67.78-.87.98-1.36-2.08-.41-1.26-.85.19-1.44.37-.14.77-.33,1.17-.55.4-.22.81-.45,1.2-.7.76-.51,1.36-1.18,1.6-1.8.51-.71.87-1.31,1.25-1.72.18-.21.36-.38.53-.53.16-.16.31-.29.47-.4.61-.43,1.21-.48,1.84-.53.62-.06,1.24-.14,1.95-.59.73-.43,1.42-1.35,2.08-3.01-.76.2-1.05,0-1.06-.41-.02-.42.17-1.09.48-1.85.6-1.52,1.3-3.58,1.11-4.74.28-.87.49-1.46.83-1.98.31-.52.77-.97,1.13-1.61-.21-.55-.27-2.02-.68-2.23-.75.26-1.5.7-2.25,1.25-.37.27-.74.57-1.11.89-.38.32-.78.65-1.19.99-.38.34-.78.69-1.2,1.05-.42.34-.85.69-1.3,1.05-.4.36-.89.69-1.35,1.02-.46.33-.88.67-1.4.96,0,.12.02.22.07.24Z"/>
    </g>
  </g>
  <g>
    <path class="cls-2" d="M24.89,21.78c-1.8,1.61-3.25,3.54-5.08,5.09.92-.12,1.28-1.02,2.04-1.35-.68.9-1.45,1.72-2.31,2.45-.69.58-1.43,1.1-2.05,1.77-.46.48-1.08.87-1.77.64-.68-.23-.93-.84-1.01-1.55-.05-.47-.15-.94-.44-1.38-.45-.66.09-1.13.61-1.36.59-.26.98-.68,1.34-1.16,1.03-1.39,2.06-2.77,3.1-4.15.34-.46.29-.86.16-1.42-.22-.98-.76-1.98-.32-3.05.18-.44.49-.63.94-.68.62-.08,1.17-.33,1.61-.75,1.89-1.8,3.73-3.64,5.06-5.92.23-.39.4-.75.36-1.23-.04-.56.23-.82.85-.81,1.91.02,2.6.96,1.98,2.76-.31.89-.95,1.57-1.62,2.54,1-.47,1.78-.84,2.56-1.19.3-.13.22-.33.16-.54-.14-.56.21-.75.66-.81,1.46-.2,4.02,1.37,4.56,2.78.25.64-.36,1.42-1.05,1.37-.35-.03-.71-.09-1.06-.08-.95.03-1.25.59-.73,1.36.27.41.2.77.04,1.16-.42,1.02-.99,1.95-1.68,2.82-.18.22-.45.4-.44.86,1.47-.81,2.89-1.57,4.27-2.38.59-.35.37-1.05.5-1.59.13-.51.08-1.12.76-1.18.68-.06,1.05.46,1.23,1.03.68,2.17,1.3,4.36,1.96,6.53.27.9-.42,1.31-.97,1.58-.51.26-1.17.42-1.76-.19-.8-.83-1.24-1.8-1.45-2.88-.1-.52-.39-.92-.52-1.4-.77,2.62-3.4,2.69-5.16,3.9.05.31.31.3.5.36,2.02.65,3.9,1.58,5.77,2.58,1.13.61,2.18,1.43,3.54,1.67.86.15,1.52.84,2.12,1.49.86.93,1.94,1.52,3.11,1.93.3.1.69.16.97.05.88-.33,1.66.22,2.5.18.14,0,.36.11.41.23.48.99,1.44,1.38,2.32,1.88.17.09.37.19.32.42-.04.2-.25.17-.41.19-.3.04-.4.16-.21.43.03.04.09.1.09.14-.21.97.4,1.23,1.17,1.38.26.05.4.3.4.57,0,.27-.15.46-.39.57-.05.02-.13.02-.15.05-.77,1.34-2.23.66-3.3,1.12-.31.13-.69.16-1.01.31-.61.28-1.21.63-1.66-.24-.08-.15-.28-.13-.45-.08-1.26.38-2.26-.27-3-1.08-3.42-3.73-7.24-7.02-10.97-10.42-.75-.68-1.64-1.18-2.62-1.52-.33-.12-.57-.09-.81.16-2.05,2.18-4.06,4.42-5.64,6.94-1.38,2.2-2.67,4.45-4.26,6.48-1.09,1.4-2.38,2.64-3.57,3.96-.23.25-.61.47-.15.89.12.11.02.47-.01.71-.13,1.09-.77,1.93-1.43,2.73-.67.81-1.35.58-1.85-.54-.42-.95-.85-1.88-1.57-2.67-.24-.26-.53-.37-.78-.56-.48-.37-.61-.85-.15-1.2,1.11-.85,1.45-2.07,1.82-3.3.56-1.87,1.26-3.68,2.09-5.45.3-.64.66-1.25,1.27-1.7-.86,1.81-1.91,3.56-1.84,5.7.32-.27.15-.78.68-1.04.11,1.18-.21,2.32.07,3.43.72.07.59-.62.9-1.04.32.77.59.4.93.03,1.12-1.22,2.01-2.61,2.92-3.97,2.27-3.39,5-6.39,7.93-9.2.24-.23.67-.4.53-.84-.13-.42-.53-.29-.85-.32-.3-.03-.53-.18-.37-.47.29-.55.1-1.01-.17-1.47-.18-.31-.11-.63-.08-1.03ZM26.19,16.87c.73-.02,1.18.45,1.51,1.04.22.4.01.91.26,1.31.11.18.02.5.3.53.24.03.37-.21.5-.38.77-.97,1.53-1.94,2.06-3.06.13-.27.35-.58.24-.85-.34-.89.23-1.27.83-1.68.15-.1.28-.27.4-.41.41-.5-.13-1.93-.77-2.02-.09-.01-.2.05-.3.1-2.51,1.18-3.91,3.56-5.92,5.33.67.26.58-.62,1.04-.6.1.12.04.21-.01.3-.07.11-.21.18-.14.4ZM22.04,22.42c1.66-1.47,4.07-2.21,3.43-4.98-2.33.68-2.84,2.75-3.43,4.98Z"/>
    <path class="cls-2" d="M22.95,44.31c.26-.15.37-.21.59-.34-.75-.1-.87-.55-.84-1.14.02-.35-.05-.71-.09-1.06-.24-1.95,1.27-3.96,3.33-4.09.38-.02.7-.13.98-.36.5-.42,1.02-.84,1.49-1.3.55-.53,1.05-1.11,1.61-1.71-1.19.02-3.72,1.03-4.09,1.96-.41,1.04-1.58.75-2.01,1.54-.01.02-.04.04-.07.05-.15.04-1.46-1-1.48-1.17-.3-2.13.17-2.92,2.06-4.05,1.58-.95,2.83-2.33,4.09-3.67.54-.57,1.14-1.11,1.42-1.9.17-.48.62-.51.95-.24.65.54,1.27,1.14,1.31,2.08.03.59-.16,1.05-.74,1.34-1,.5-1.65,1.41-2.42,2.2.91-.06,1.74-.27,2.47-.83.65-.51,1.72-.5,2.41-.03.18.12.38.21.58.3.64.29.84.74.54,1.39-.09.21-.36.45-.11.66.24.2.37-.1.52-.24.11-.1.24-.12.38-.08,1.17.36,2.41.53,3.36,1.44.84.81.94,1.74.19,2.6-.48.55-.5,1.34-1.02,1.89-.28.3-.3.83-.86.86-.05,0-.15.12-.14.17.27.96-.55,1.3-1.01,1.88-1.14,1.44-2.28,2.88-3.24,4.45-.83,1.36-1.5,2.81-2.53,4.06-.72.87-1.67,1.17-2.7,1.33-.47.07-1.11.45-1.14-.53,0-.18-.26-.15-.42-.06-.6.33-.78-.09-.93-.53-.07-.21-.16-.42-.17-.63-.07-1.24-.76-2.05-1.62-2.9-.65-.64-1.33-1.22-2.07-1.67-.84-.5-1.87-.51-2.84-.64-.37-.05-.76.04-1.1-.37.87,0,1.74-.05,2.6,0,2.08.15,4.17.09,6.25.08.54,0,1.03-.18,1.41-.58,1.93-2.04,3.6-4.28,5.12-6.63.02-.04,0-.1,0-.24-.95.01-1.55.74-2.31,1.09-.15.07-.28.18-.39.3-1.09,1.17-2.43,2-3.74,2.89-.88.6-1.72,1.38-2.4,2.26-.24.3-.63.24-1.16.15Z"/>
  </g>
</svg>