<?xml version="1.0" encoding="UTF-8"?>
<svg id="_圖層_1" data-name=" 圖層 1" xmlns="http://www.w3.org/2000/svg" version="1.1" viewBox="0 0 60 60">
  <defs>
    <style>
      .cls-1 {
        fill: #fff;
        stroke-width: 0px;
      }
    </style>
  </defs>
  <polygon class="cls-1" points="23.6 3.4 26.2 3 21.8 3.2 23.6 3.4"/>
  <path class="cls-1" d="M39.8,1.8h.1s0,0-.1,0h0s0,0,0,0Z"/>
  <path class="cls-1" d="M38.3,1.9s-1.5.3-2.6.6c1.6-.3,4.5.2,4.1-.7-.8,0-1.4,0-1.7.2h.1c0,0,0,0,0,0Z"/>
  <path class="cls-1" d="M42.6,1.7c-.8,0-1.8,0-2.7,0,.9.2,1.5,0,2.7,0Z"/>
  <path class="cls-1" d="M39.4,2.5c.5,0,1.8-.3,2,.1,1.8,0-1-.4.7-.4.5,0-2.5,0-2.7.2h0Z"/>
  <path class="cls-1" d="M48.3,2.7h0c-.4,0-.8,0-1.1,0,.2,0,.5,0,1.1,0h0Z"/>
  <path class="cls-1" d="M47.1,2.6c-.4-.2-.2-.4-1.7-.4l-.6.5c1,0,1.7,0,2.3,0Z"/>
  <path class="cls-1" d="M50.1,2.6h-1.6c.5-.5,2-.1,2.2-.4,0-.1-.9-.2-1.2-.3-.3.6-2.1,0-1.3.9.5,0,1.1,0,1.9,0h0Z"/>
  <path class="cls-1" d="M49.6,1.8s0,0,0-.1c-.2,0-.2,0,0,.1Z"/>
  <path class="cls-1" d="M57,5c.2.3.4.6.6.9.2.4.3.7.5,1.1-.2-.7-.5-1.4-1-2.1h0Z"/>
  <path class="cls-1" d="M58.6,10.2c0,.6.2-1,0-1v1h0Z"/>
  <path class="cls-1" d="M55.7,3.5c0,0,.2.2.3.3,0,0-.2-.2-.3-.3Z"/>
  <path class="cls-1" d="M56.3,4.3c0,.2-.1.2-.6-.1-.1-.3-.3-.6-.5-.9-.8-.2-1.6-.3-2.4-.2.9,0,1.8.4,2.3.8.6.4,1,.9,1.4.7.1.3.3.6.4.9,0-.2,0-.4,0-.6-.3-.5-.7-.9-1-1.2.2.2.3.4.3.5h0Z"/>
  <path class="cls-1" d="M52.7,2.5c.2,0,.3,0,.4,0-.4,0-.9-.1-1.3-.1.4,0,.7,0,.9,0h0Z"/>
  <path class="cls-1" d="M54.8,2.5c-.7-.3-1.1-.4-1.3-.4s-.2,0-.1.2c0,0,0,.2-.2.2h0c.7.1,1.4.3,2,.6,0-.2-.2-.4-.3-.6h0Z"/>
  <path class="cls-1" d="M34.8,2.7s0,0,0,0c.2,0,.3,0,0,0Z"/>
  <path class="cls-1" d="M14.3,57.3c.4,0,1.4-.2,2.2,0-.7,0-1.9-.4-2.2,0Z"/>
  <path class="cls-1" d="M14.4,59.1h0c0,0-.2,0-.4,0h.4Z"/>
  <path class="cls-1" d="M14.4,58.8v.2c.2,0,.3-.1,0-.2Z"/>
  <path class="cls-1" d="M11.4,59h1.5c0,.3,0,.5-1,.5.2.1,1.1,0,1.5-.1h-.3c.2-.1.6-.2.9-.3-1.3,0-2.4-.8-2.6,0h0Z"/>
  <path class="cls-1" d="M10.4,59c-.1,0-.4,0-.6,0-.4,0-.8,0-1.2,0,.2,0,.5,0,.8.1.3,0,.6,0,.9,0,.4,0,.6-.2.4-.3h-.4c0,0,0,0,0,0Z"/>
  <path class="cls-1" d="M7.4,58s-.2,0-.4-.1c-.4-.2-1-.5-1.2-.6.5.4.8.6,1,.7.2,0,.3.1.4,0,.2,0,.2-.2.9,0-.4-.1-.8-.3-1.1-.4.3.2.4.2.3.3h0Z"/>
  <path class="cls-1" d="M8.2,58.2c.2,0,.4,0,.6.1-.2,0-.4,0-.6-.1Z"/>
  <path class="cls-1" d="M24.9,56.7v-.2c-.2,0-.2,0,0,.2Z"/>
  <path class="cls-1" d="M3.4,53.8s0,0,0-.2c0-.2-.2-.4-.2-.6,0,.2.2.5.3.7h0Z"/>
  <path class="cls-1" d="M2.2,47.6h0s0,0,0,0Z"/>
  <g>
    <path class="cls-1" d="M22.6,56.6s0,0,0,0h0s0,0,0,0h0Z"/>
    <path class="cls-1" d="M22.8,56.4h0c0,0,.1,0,.2,0,0,0,0,0,0-.1h0c0,.1,0,.1,0,.1h0c0,0,0,0,0,0h0Z"/>
    <path class="cls-1" d="M22.5,41.5v.2h0s0-.2,0-.3c0,0-.1,0-.1.1h0Z"/>
    <path class="cls-1" d="M21.9,52.8v-.2c.1,0,.1,0,.1,0,.1-1.8.2-2.9.2-3.2h0c0,.8,0,1.3-.1,1.3h0c0,.7,0,.9,0,.9h0c0,.5-.1.7-.2.7,0,0,0,.2,0,.2h0c0,.1,0,.2,0,.3,0,0,0,0,0,0h0Z"/>
    <path class="cls-1" d="M58.5,9.4c0,0,0-.1.1-.1v-.2h0c-.1-.5-.3-1.3-.6-2,0,.2,0,.4,0,.5,0,.9,0,1.6-.3,2.2-.1.4-.2.8-.3,1.1v-1.6c0-.2,0-.3,0-.3-.1-2.9-2.6-5.3-5.6-5.3h-12.1v-.2s-.1,0-.2.2h-1.8c-.9-.2-1.4-.2-1.8,0h-2.1c0,0,0,0,0-.1,0,0-.1,0-.1.1h-2.3c0,0,.2-.2,1-.3-2.3.1-4.1,0-6-.2.6.2.8.1,1.6.2-1,0-2.1.1-3.3.2h-2.6l.2-.2c-1.2-.4-4.4-.2-7.1-.3l1.7.2c0,.1,0,.2.2.3h-2.8c-.7-.2-1.1-.5-2-.3.9.2,1,.3.9.3h-1.7c0-.2,0-.3-.4-.4-.9.2.7.2.4.4h-.6c-.8-.3-1.1,0-1.4,0,0,0,0,0,0,0-.5,0-.9.3-1.4.5,0,0-.1,0-.2,0,.1-.1.3-.3.4-.4.1-.1.3-.2.5-.4-1.2.5-2.4,1.4-3.1,2.8-.4.7-.6,1.4-.7,2.1,0,.8,0,1.5,0,2.2l-.5-.3c.2,1.1.2,2.6-.3,2.8,0-1.7-.2-2.6-.4-3.5,0-.4-.2-.9-.2-1.4,0-.2,0-.5.2-.8,0-.3.2-.5.4-.8,0,.3,0,.2.2,0,0-.5.2-1.3.7-2,.5-.7,1.3-1.5,2.2-1.8-.2.2-.3.4-.5.6.7-.4,1.4-.8,2.2-.9.4,0,.8-.2,1.2-.2h.6s.5,0,.5,0c1.3,0,2.6,0,3.8,0-.7-.2,0-.5,1.1-.5,1.6.1-.5.2.2.4,1,.5,3.9-.2,5-.2-.4.1,3.1.3,1,.5,2.5.1,4.4-.6,6,0,.2-.2.9-.5,1.6-.6v.5s.8-.3.8-.3c1.7,0,2.5.9,4.3.5-.3,0-1,0-1-.2.2-.4,3.4-.5,2.8-1l-1.4.3c.5-.4-1.4-.3-1-.5l-3.9.2v-.4c0,0,.8.2.8.2,1.1-.8-1.9,0-3-.4v.3c-3.4-.3-1.4-.3-4.1-.5l-.8.3c-.1,0,2.5-.4,2.4,0-1.8.3-4.2.2-6.1.6l1.5-.8c-.6.5-1.8-.4-3.7-.3l1.6.2c-1.3.7-4.5,0-6.6.4.6,0,1.2,0,1.3.2-.5.2-1.9,0-2.7,0,.3-.8,5-.4,4.5-1-1.2,0-2.3.2-3.3.4-.5.1-1,.2-1.4.2-.1,0-.3,0-.4,0-.1,0-.3,0-.4,0-.3,0-.6,0-.8.1.3-.1.6-.2.8-.4h.4c.1-.2.3-.2.4-.3h-.4c0,0-.4.1-.4.1-.3,0-.6.1-.9.2h.5c-.4.2-.9.3-1.5.4-.6.2-1.3.4-1.9.8.2-.3.4-.6.6-.9-.8.4-1.6.9-2.2,1.5h.3c-1.5,1.4-2.4,3.2-2.7,5.2,0,.2,0,.5,0,.7v.4s0,.2,0,.2v.9c-.1.6-.2,1.2-.2,1.9l.2-1.5c0,.1.1.9,0,1.6.3-.2.2-2.1.4-1.9,0,2.4-.4,2.7-.6,5.1.2.2.7-1.6.9.4-.4-.2-.5,1.6-.9.2.3,1.7-.3,1.3.1,2.6,0-.2,0-.4,0-.7.2-.4.2.7.3,1.2-.3.8-.5,1.2-.6,2.5l.2,2.7c0,.1-.1,0-.1,0,.2,2.6-.1,5.3.1,7.2.2.2.4,1,.4-.4.3,1.1,0,2.5-.1,3.7l-.4-1c.1,3.2-.5,7.1,0,10.1l.3-.5c.2,2.8-.2,5.5,0,7.1.2-1,.3-.7.4,0,0,.2,0,.5,0,.8,0,.3,0,.6.2.8,0,.3.1.5.2.7,0,.2.2.4.2.5-.2-.7-.4-1.5-.5-2.4,0-.6,0-1.3-.1-1.8,0-.9-.1-1.6,0-1.8h0c0,0-.3-3.7-.3-3.7h.5c-1-.2.4-5-.5-4.3,0-1,.3-1.5.6-1.3l-.3-2.9c.2-.3.6.3.6.6,0,1.2.4,3,0,4.2.3,1,.5-.9.6,1.2-.3,1.8-.3,3.7-.3,5.5s0,1.8,0,2.6c0,.4,0,.8,0,1.2,0,0,0,.2,0,.3s0,.2,0,.3c0,.2,0,.5,0,.7,0-.4,0-.8,0-1,0-.2,0-.1.2.3,0,.7,0,1.5.2,2.3.4.9,1,1.4,1.4,1.8.5.4.9.7,1.4,1.2.3,0-.4-.5-1-1.2-.3-.4-.6-.8-.8-1.3s-.3-.8-.4-1.1c.7.6,1,1.3,1.5,2.1.4.8,1.2,1.5,2.1,1.5.4-.1-.5-.5-1.3-1.1-.4-.3-.7-.6-.8-.9-.1-.2,0-.3.3-.2.4.6.9,1,1.5,1.5-.4-.7-1.1-1.2-1.6-1.7-.5-.5-.8-1.1-.6-1.5.3.9.9,1.6,1.6,2.2,0,0,0,.1,0,.1,0,0,0,0,0,0,.9.7,2.1,1.2,3.4,1.2h2c0,.2-.6.4-1.2.5-.2,0-.4,0-.5,0-.2,0-.4,0-.6,0-.4,0-.8,0-1,0,.2,0,.5.2.8.2.1,0,.3,0,.5,0,.1,0,.3,0,.4,0,.6,0,1.2,0,1.6,0l-1.5-.2c1.7,0,1.8-.5,2.8-.6h2.4c.4.1-.3.5.2.6,2.3-.3.8,0,.8-.5,1.9,0,2.3.2,4.7,0-1.4.2-1.8.4-3.2.3l.4.4c1.2-.1,2.2-.4,3.3-.6,0-.1-.1-.3-.3-.5v-.6c-.2-.2-.5-.7-.7-1.3,0,0,0-.2-.3-.4,0,0,0,0,0,.2s0,.4.3.7h0c0,.1-.1.1-.1.1-.1,0-.2-.2-.3-.3h-.1c0,0,0,0,0,0,0-.1-.1-.3-.4-.5,0,0,0-.2-.3-.5,0-.3.2-.5.5-.5h0c0,0,0,0,0,0h0c.1.1.2,0,.2,0-.2-.1-.3-.2-.3-.3v-.2h.2s0-.2,0-.4h-.1c.1-.2.2-.4.2-.5,0,0-.1,0-.1-.1h0c0-.2,0-.3,0-.5h0c0-.1,0-.2-.1-.3l.4-1c0-.2,0-.3-.2-.3,0-.1.1-.4.3-.8,0,0,0,0,0,0h0c0,.1-.1.1-.1.1.2-.5.3-.8.3-.9v-.4h-.1v-.4h.1c0,.1,0,.1,0,.1v-.9h0c0,0,0,0,0,0h0c0,0,0,0,0,0v-.4h0c0-.2,0-.3.1-.3v.2c0,0,0,0,0,0h0c0-.1.1,0,.1,0v-.4h-.1c0,.1,0,.1,0,.1,0-.2,0-.3,0-.3,0,0,0-.2,0-.3.2-.1.3-.4.3-.7v-1.1h0c0,.1-.1.1-.1.1,0-.5,0-.8.3-.8v-.2l-.3.3h0c0-.1.2-.2.3-.5h0c0-.1,0-.8,0-.8,0,0,0-.2,0-.2h0c0,0-.1-.2-.1-.3h.1c0,0,0,0,0,0,0,0,0,0,0-.1,0,0,.1,0,.1,0v-.3h0c0-.1,0-.2,0-.3h-.1c0-.1.1-.1.1-.1v-.3s0,0-.1,0v-.3c0,0,0-.1,0-.1v-.4c.1-.1.2-.4.3-.8,0,0,.2,0,.3-.1,0,0,0,0,0,0,0-.3.1-1,.2-2.1,0-.1,0-.2-.1-.2,0-.5.1-.8.2-1h0c0-.1.1-.1.1-.1,0,0,0,0,0,0,0-.8.2-2,.4-3.6v-.2s0-.2.1-.7c0,0,0-.2,0-.3,0,0,0-.2,0-.2,0,0-.2.1-.2.1l.3-.7c0-.4,0-.5.1-.5h-.1c0-.1.1-.5.1-.5,0,0,0,0-.1,0,.3-3,.8-4.9,1.5-5.9.3-.7.4-1.2.4-1.4,0,0,.1,0,.1-.2h.6,0c0,0,.1-.2.1-.4,0,0-.3-.4-.5-1.1,0,0,0-.1,0-.2-.2-.5-.3-1.1-.4-1.9.2,0,.4,0,.6.1-.2-.2-.3-.4-.3-.5.5,0,.8.1.9.1h1.3c2.5,0,5.1-.6,7.8-1.7,0,0,.3,0,.8-.2h0c.9-.2,1.7-.4,2.3-.8.8-.1,1.3-.4,1.5-.8,0-.2.3-.3.9-.3,0,0,.3-.2.9-.5h.1c0-.1.2-.3.7-.4h.3c0,0,0-.2.2-.2h.5c0,0,.1,0,.1.1h.4c.3,0,.7.3,1.3.8,1,.3,1.6.6,1.7.8.4,0,.7.2,1.1.7.3,0,.8.3,1.6.9.2,0,.3.2.4.6.1,0,.2.2.3.5.3.1.6.6.9,1.4v.7c0,0,0,.2-.2.5,0,.4.3.6.9.7,0,0,.1.1.3.1v.3c0,.3-.2.4-.7.4-.1.3-.2.6-.3.9h-.5s-.2-.1-.4-.3h0c0,0,0-.1,0-.1h-.1c0,0-.1,0-.1,0v.2c.1,0,.1,0,.1,0,0,.2-.2.3-.4.3-.1,0-.3-.1-.4-.1,0,.2,0,.3,0,.3l.4.5c0,.2,0,.3,0,.3s-.4-.1-1.1-.3c-.1,0-.3,0-.6.1,0,0-.1,0-.2,0h0c0,.1.1.2.1.3h0c-.5-.3-.9-.4-1.3-.5v.2c-.4,0-2.1.5-5,1.6h0s-.5.1-1.3.3l-1.5.8c0,.1.2.2.7.3,0,.6-.8,1-2.5,1.1-.2,0-.3,0-.4-.2,0,0,0-.2,0-.5-.1,0-.3-.1-.4-.1h-.7c-.2,0-.3.3-.3.7v.5c0,.2,0,.3,0,.5h0c0,.1,0,.3,0,.3v.7c0,.3,0,.5,0,.7h0c0,.1-.3,2.6-.3,2.6h0c3.1-.5,5.3-1,6.6-1.6,0,0,.2-.1.7-.3h0c0,0,.2,0,.2,0,0,0,.2-.2.7-.3l.3.2c0-.1,0-.2,0-.3,0,0,.9.6,2.5,1.7l1.5.8c.8.4,1.3.8,1.6,1.2.2,0,.6.6,1.2,1.6,0,0,.2.2.5.5,0,0-.1.2-.1.3.2,0,.3.2.3.5-.3.7-.4,1.2-.4,1.6.2,0,.3.2.3.5s-.2.3-.5.7v.3c0,.2,0,.4,0,.6-.4.3-.7.6-.7.9,0,0,0,0-.1,0-.3,0-.8-.2-1.4-.5h0c0,.1,0,.2,0,.3l-.3.2c-.2,0-.4,0-.7-.2,0,0-.1,0-.3,0,0,0-.2-.2-.5-.2h-.5,0v.2h-.3c-.1,0-.4,0-.7,0-1.3.5-3.3.8-6,1.2,0,0,0,0-.2.1v.2c.1.4-.3.6-1.1.6,0,0-.2.1-.6.1h-.5v-.2c.1-.2.2-.3.2-.4h-.1c.2-.1.3,0,.3,0,.1,0,.5-.2.9-.3h0c-.1,0-.2-.1-.2-.3h-.3c-.9.3-1.5.4-1.7.4h0c0,0,0,0,0,0h-.4c0,.2-.1.3-.3.3h-.2v-.2l-.3.2h-.1c0,0-.1,0-.1-.2.3,0,.5,0,.6,0,0,0,0,0,0,0,0,0,.1,0,.1-.3-.1,0-.3,0-.5,0,0,0-.3.2-.9.3-.2.1-.3.4-.3.7h0c0,.8,0,1.1,0,1.1h0c-.1,1.2-.3,2.7-.4,4.6h0c0,1.3-.2,2.2-.3,2.7h.1v.2c-.2.5-.3.8-.3.9,0,0,.1,0,.2,0h0c-.1,0-.3.6-.4,1.5h0c-.2.5-.4,1.7-.6,3.6h20.4c.3,0,.6,0,.9,0,.1,0,.3,0,.6,0,.1,0,.2-.1.3-.2,2.2-.8,3.8-2.8,3.8-5.3h0c0,0,0,0,0,0,0-.1,0-.3,0-.4v-24.2s0,0,0,0h0v-1.2c.4.3,1,.9.9-.8-.3,1.4-1,.2-.9-.8,0,0,0,0,0,0v-.6c.3.8.5-.3.4-1.3,0,.9-.2,1.4-.4,1.2v-1.3c0,.1,0,.2.2.3.5.2.5-2.8.8-4,0-1-.2-1-.5-1.3.3-.3.3-1.3.6-1.6-.4-2.2.3-3.3,0-5.4h0ZM21.1,46.4v.2c0,.2,0,.3-.2.3,0-.2,0-.4,0-.5h.1ZM21.2,44.2h0c0,0,0,.2,0,.2h0v-.2h.1ZM57.5,21.1v-1.2c.4.3,0,.8,0,1.2Z"/>
    <path class="cls-1" d="M21.5,41.7h-.2v.2c.1,0,.2,0,.2-.2Z"/>
    <path class="cls-1" d="M22.6,42.1v-.3h0c0,.7,0,1.1,0,1.1v.2c0,.2,0,.3-.3.3,0-.8.2-1.2.2-1.2h0c0-.5.1-.8.1-.9,0-.4,0-.5,0-.5h0c0-.2,0-.3.1-.3,0,.2,0,.3,0,.3h0v.4h0l.6-7.2c0,0,0-.2,0-.2h0s0,0,0,0v-.5c0-.5,0-.8-.3-.8s0,0,0,0l-.3.8c0,.2,0,.3.1.3,0,0,0,.1-.1.1,0,0,0,.1,0,.2,0,1.5-.2,2.2-.3,2.2,0,.1,0,.2-.2.2h0c0,.2,0,.4-.1.7v.2c0,0,0,.3,0,.3h0c0,0,0-.1.1-.1,0,.1,0,.2.1.2h0c-.2.1-.3.2-.3.5h-.1c0,0-.1,0-.1,0,.2,0,.3,0,.3.1l.3-.2h0v.3c0,0,0,.1,0,.1v.2c0,.1-.1.3-.1.4h.1c0,.6,0,1.1,0,1.5s0,.1,0,.1c0,0,0,0,0,0v.5c0,0,0,.2,0,.3,0,0,0,.1,0,.3h.1v.3h-.1v.3c0,0,0,0,0,.2,0,0,0,0,0,0,0,.5-.2.9-.3,1.1,0,0,0,.1,0,.2h0,0c0,0,0,.3,0,.3h0c0,.4-.1.6-.3.7v.2h0v.5c0,0,0,0,0,0h0c0,0,.1,0,.1,0-.1.3-.2.4-.2.5h0c-.1.5-.2.9-.3,1.3,0,0,.2.1.3.4v.4c-.2,0-.3.2-.3.6h.2c-.1.5-.2.7-.3.7,0,.1.1.2.2.2v.5c0,.2,0,.3.1.3,0,.4-.2.6-.3.8.2,0,.3-.1.3-.1h0c-.2.3-.4.5-.5.7,0,.3.2.5.5.7,0-.1,0-.2.2-.2h-.1c0-.1.1-.3.1-.3h-.2c0-.2,0-.3.2-.3l-.2-.3c.1-.4.3-1.5.5-3.2h0c0,0,.1,0,.1,0v.3c0,0,0,.3,0,.3,0,0,0,0,0,0,.2-2,.3-4.3.4-7h0ZM23.2,34v.2c0,0-.1,0-.1-.1s0,0,.1,0ZM23,34.4s0,0,0-.1h.1c0,.1,0,.2,0,.3h-.1ZM22.9,35.1h.1v.3h-.1v-.3ZM22.1,45.5c0-.1,0-.3,0-.4h0c0-.2,0-.4,0-.6h.1v.5c0,0,0,.1-.1.1h.1c0,.5,0,.8,0,.9h-.1c0-.3,0-.4,0-.4h0ZM22.1,46h.1s0,0,0,0h0v.3h-.1v-.3h0ZM22.1,46.6c0,0,0-.1.1-.1h0c0,.3,0,.5-.1.7,0,0,0,0,0,0h-.1v-.6h0ZM22.2,47.4v.2c0,0-.1,0-.1-.2h.1ZM22,48.4c0-.3.1-.5.2-.5h0,0v.5h-.2Z"/>
  </g>
</svg>