<?xml version="1.0" encoding="UTF-8"?>
<svg id="_圖層_1" data-name="圖層 1" xmlns="http://www.w3.org/2000/svg" version="1.1" viewBox="0 0 60 60">
  <defs>
    <style>
      .cls-1 {
        fill: #000;
        stroke-width: 0px;
      }
    </style>
  </defs>
  <polygon class="cls-1" points="23.63 3.42 26.23 2.95 21.8 3.2 23.63 3.42"/>
  <path class="cls-1" d="M39.8,1.77s.07,0,.11,0c-.04,0-.08,0-.12-.02,0,0,0,.02,0,.03Z"/>
  <path class="cls-1" d="M38.27,1.86s-1.53.26-2.61.61c1.64-.35,4.55.17,4.14-.7-.78.03-1.42.08-1.65.17l.13-.09Z"/>
  <path class="cls-1" d="M42.57,1.71c-.82.03-1.81.03-2.66.06.94.2,1.54.07,2.66-.06Z"/>
  <path class="cls-1" d="M39.37,2.47c.45.09,1.77-.29,1.96.13,1.85.07-1.01-.4.73-.39.47-.06-2.55.01-2.69.25Z"/>
  <path class="cls-1" d="M48.28,2.65s0,0-.01-.01c-.39-.01-.75-.03-1.12-.05.18.06.49.1,1.13.07Z"/>
  <path class="cls-1" d="M47.14,2.58c-.41-.15-.19-.43-1.72-.4l-.62.45c1.05-.1,1.72-.08,2.34-.05Z"/>
  <path class="cls-1" d="M50.14,2.57l-1.62-.1c.5-.36,1.97-.02,2.24-.35-.07-.15-.91-.25-1.16-.34-.35.64-2.09-.01-1.33.85.51.01,1.08,0,1.88-.06Z"/>
  <path class="cls-1" d="M49.6,1.78s.04-.07.05-.12c-.17.04-.15.08-.05.12Z"/>
  <path class="cls-1" d="M56.95,4.96c.2.29.4.6.57.93.19.36.34.73.48,1.11-.16-.7-.48-1.43-1.05-2.07,0,0,0,.02,0,.02Z"/>
  <path class="cls-1" d="M58.63,10.24c-.05.61.16-.98-.01-1.01,0,.15,0,.28,0,.43v.58Z"/>
  <path class="cls-1" d="M55.68,3.48c.09.09.2.2.31.32-.09-.1-.19-.21-.31-.32Z"/>
  <path class="cls-1" d="M56.32,4.33c.03.18-.11.16-.57-.13-.14-.29-.31-.58-.51-.86-.81-.23-1.64-.29-2.4-.2.89-.08,1.77.39,2.35.84.6.45.98.86,1.39.72.14.29.27.57.36.86,0-.19.02-.4,0-.61-.33-.47-.67-.86-.96-1.16.19.21.31.41.33.53Z"/>
  <path class="cls-1" d="M52.69,2.45c.18.02.3.03.4.03-.44-.08-.88-.12-1.31-.11.36.03.69.05.9.08Z"/>
  <path class="cls-1" d="M54.75,2.52c-.71-.35-1.09-.4-1.26-.4-.17,0-.15.09-.14.18,0,.09,0,.16-.19.18-.02,0-.05,0-.07,0,.68.12,1.36.33,1.98.64-.1-.19-.2-.39-.32-.59Z"/>
  <path class="cls-1" d="M34.83,2.65s-.06,0-.09.02c.17-.02.26-.04.09-.02Z"/>
  <path class="cls-1" d="M14.3,57.31c.45.09,1.41-.17,2.2-.05-.69-.06-1.93-.43-2.2.05Z"/>
  <path class="cls-1" d="M14.36,59.08v-.09c-.09.03-.22.06-.37.09.12,0,.25,0,.37,0Z"/>
  <path class="cls-1" d="M14.39,58.78l-.02.22c.21-.06.28-.13.02-.22Z"/>
  <path class="cls-1" d="M11.35,59l1.5.04c-.03.3-.04.45-.97.42.22.12,1.05-.05,1.52-.11l-.34-.03c.2-.09.59-.16.92-.23-1.34-.05-2.35-.8-2.64-.08Z"/>
  <path class="cls-1" d="M10.4,58.95c-.15.03-.37.06-.55.08-.39.06-.78.05-1.18.06.22.04.51.08.82.12.3.01.65.02.9,0,.37-.05.61-.16.4-.35l-.39.1Z"/>
  <path class="cls-1" d="M7.4,58.05s-.19-.03-.39-.11c-.41-.15-.98-.48-1.23-.58.48.4.82.6,1.05.69.23.1.34.11.43.09.18-.05.25-.15.93.02-.4-.13-.78-.28-1.11-.36.26.18.36.24.32.26Z"/>
  <path class="cls-1" d="M8.19,58.15c.19.05.39.1.59.13-.24-.06-.42-.1-.59-.13Z"/>
  <path class="cls-1" d="M24.91,56.68l-.1-.16c-.08.05-.09.1.1.16Z"/>
  <path class="cls-1" d="M3.41,53.8s-.03-.1-.04-.15c-.08-.18-.16-.37-.24-.59.09.25.17.5.28.73Z"/>
  <path class="cls-1" d="M2.15,47.6l.02-.04s-.02.01-.02.04Z"/>
  <g>
    <path class="cls-1" d="M22.6,56.58s-.05-.01-.06-.01c0,.01,0,.01,0,.03.02,0,.05,0,.07-.01Z"/>
    <path class="cls-1" d="M22.8,56.43v.1c.07-.02.15-.03.22-.04,0-.04-.01-.08-.02-.13h-.07v.13h-.07v-.07h-.07Z"/>
    <path class="cls-1" d="M22.54,41.54v.2h.07s.02-.16.07-.34c-.09,0-.13.05-.13.13Z"/>
    <path class="cls-1" d="M21.86,52.81l.13-.2v-.07c.13-1.83.2-2.91.2-3.22h-.07c-.05.85-.09,1.28-.13,1.28v.13c0,.54-.02.81-.07.81l.07.13c-.05.4-.11.6-.2.6.04.09.07.16.07.2l-.07.13s.07.09.07.13c-.05,0-.07.02-.07.07h.07Z"/>
    <path class="cls-1" d="M58.51,9.35c.05-.09.09-.12.12-.12,0-.06,0-.11,0-.18l-.05.15c-.13-.63-.3-1.41-.57-2.19.04.18.08.36.09.53.1.85-.08,1.65-.28,2.24-.12.39-.22.77-.32,1.13v-1.62c.03-.17.02-.28-.03-.33-.14-2.95-2.59-5.33-5.58-5.33h-12.12l-.04-.16s-.09.08-.19.16h-1.83c-.94-.24-1.42-.15-1.81,0h-2.13c.06-.04.09-.08.04-.11-.09.04-.12.08-.13.11h-2.3c-.04-.09.16-.18.95-.3-2.33.14-4.06-.03-6.01-.16.57.15.8.13,1.6.25-.95.01-2.13.12-3.3.21h-2.57l.19-.19c-1.24-.37-4.39-.21-7.05-.26l1.72.16c-.08.11.02.2.19.28h-2.8c-.66-.24-1.12-.5-2.03-.31.92.19,1.02.26.91.31h-1.72c0-.16-.03-.32-.45-.38-.9.17.71.25.35.38h-.62c-.76-.26-1.12-.1-1.4.08-.01,0-.03.02-.04.03-.49.1-.95.27-1.39.49-.07.01-.13.02-.2.03.14-.13.27-.27.42-.4.15-.12.31-.24.47-.36-1.15.51-2.36,1.44-3.09,2.75-.37.65-.62,1.38-.72,2.13-.1.75-.05,1.5-.06,2.22l-.48-.28c.2,1.06.16,2.56-.26,2.75.06-1.67-.19-2.65-.39-3.47-.1-.37-.19-.88-.15-1.36.02-.25.06-.5.15-.75.08-.26.21-.52.38-.79.06.35.03.17.24-.03.05-.52.22-1.28.71-2.02.47-.74,1.27-1.46,2.24-1.8-.19.19-.35.42-.51.63.65-.43,1.4-.75,2.18-.92.39-.08.79-.15,1.19-.15h.3s.25-.01.25-.01h.49c1.3.01,2.58,0,3.75-.06-.68-.21.04-.45,1.09-.5,1.61.1-.48.21.19.42.99.55,3.85-.25,5.01-.24-.36.12,3.1.29.99.55,2.54.14,4.35-.6,6.03,0,.25-.18.86-.48,1.56-.56l-.05.45.85-.33c1.7.01,2.54.91,4.26.53-.33.03-1,.06-1.05-.17.15-.39,3.41-.49,2.76-1.01l-1.42.32c.5-.36-1.36-.28-.99-.55l-3.85.25-.08-.36.91.19c1.12-.81-1.86.08-2.97-.38l-.03.3c-3.33-.26-1.37-.28-4.12-.54l-.84.33c-.12.09,2.47-.37,2.43.08-1.77.29-4.19.21-6.08.59l1.47-.77c-.62.45-1.82-.37-3.68-.29l1.6.25c-1.34.68-4.53.03-6.65.44.58,0,1.16,0,1.26.22-.49.21-1.86.08-2.66-.05.31-.78,5.02-.39,4.5-.99-1.21-.04-2.33.17-3.34.37-.5.1-.98.19-1.42.25-.14.02-.28.03-.42.05-.15.02-.3.03-.45.04-.29.04-.57.08-.84.1.27-.12.55-.24.84-.35l.44-.14c.14-.04.33-.09.41-.12l-.4.05-.44.06c-.29.05-.58.13-.86.19l.52-.05c-.35.22-.88.31-1.5.48-.61.16-1.31.4-1.86.83.18-.29.37-.59.6-.85-.81.4-1.56.91-2.2,1.54l.33-.14c-1.53,1.5-2.44,3.37-2.71,5.3-.05.24-.06.48-.08.72l-.02.36v.25s-.07.94-.07.94c-.04.63-.1,1.25-.17,1.88l.19-1.49c.09.13.11.94.05,1.63.27-.21.19-2.07.43-1.93-.08,2.43-.41,2.74-.64,5.15.18.25.7-1.56.87.43-.39-.16-.55,1.57-.94.25.28,1.7-.31,1.29.15,2.65-.02-.16,0-.41.02-.67.24-.44.24.72.29,1.19-.28.78-.52,1.22-.59,2.49l.25,2.69c-.06.11-.15-.02-.15-.02.16,2.57-.1,5.32.13,7.2.18.25.41.97.39-.43.35,1.08.01,2.55-.14,3.69l-.42-.97c.1,3.25-.47,7.14-.04,10.08l.3-.55c.19,2.8-.22,5.53.04,7.08.25-1.03.33-.68.37.03.02.25.04.53.07.81.05.28.09.57.15.84.07.26.14.51.21.71.08.2.15.36.21.45-.23-.71-.41-1.54-.47-2.38-.04-.64-.07-1.28-.11-1.85-.06-.91-.13-1.62-.1-1.79l-.04.07-.31-3.74.45.04c-.99-.21.42-5.06-.45-4.33-.05-1.05.34-1.47.58-1.33l-.28-2.92c.18-.33.63.29.6.64,0,1.16.37,3.05-.09,4.16.26.95.49-.88.59,1.22-.27,1.77-.27,3.71-.27,5.52,0,.91,0,1.78-.01,2.58-.01.4-.03.79-.06,1.15,0,.08-.01.21-.01.32,0,.12,0,.23-.01.35-.02.23,0,.45.01.67,0-.39.03-.78.07-.95.04-.17.1-.12.25.34-.04.74.01,1.51.2,2.27.42.87.98,1.37,1.45,1.78.5.4.93.73,1.38,1.22.28.02-.38-.46-.99-1.23-.31-.38-.6-.84-.81-1.27-.21-.43-.35-.84-.39-1.12.74.59,1.01,1.32,1.49,2.1.45.75,1.16,1.5,2.12,1.52.45-.13-.54-.47-1.28-1.1-.37-.3-.69-.64-.81-.86-.12-.23-.07-.31.28-.17.41.56.92,1.05,1.5,1.45-.42-.67-1.06-1.15-1.56-1.71-.47-.52-.77-1.07-.58-1.45.35.87.91,1.62,1.62,2.21.05.07.09.12.1.14.05.02.07.02.09.02.94.73,2.11,1.18,3.39,1.18h2.03c-.09.21-.58.39-1.19.5-.17.03-.35.06-.54.09-.18.03-.36.04-.56.05-.39.02-.75-.04-1-.09.2.1.47.2.77.25.15.02.31.04.47.05.15,0,.29.01.43.01.58,0,1.16-.03,1.57-.04l-1.49-.19c1.66-.03,1.79-.47,2.82-.63h2.41c.42.13-.29.47.21.63,2.34-.29.81-.03.75-.54,1.86-.08,2.3.17,4.74.09-1.41.17-1.78.44-3.16.31l.43.39c1.17-.14,2.18-.38,3.31-.62-.04-.14-.13-.29-.29-.46v-.6c-.22-.22-.45-.65-.67-1.27,0-.09-.09-.22-.27-.4-.05,0-.07.07-.07.2s.09.36.27.67v.13h-.13c-.13-.09-.22-.2-.27-.34l-.13.07h-.07c0-.13-.13-.29-.4-.47,0-.04-.09-.2-.27-.47,0-.27.16-.45.47-.54v-.07h.07v.13c.13,0,.2-.04.2-.13-.18-.13-.27-.25-.27-.34v-.2h.2s-.07-.18-.07-.4h-.13c.13-.18.2-.36.2-.54-.09,0-.13-.04-.13-.13l.07-.13c0-.09-.02-.2-.07-.34v-.13s-.09-.07-.13-.2l.4-1.01c0-.18-.07-.27-.2-.27,0-.13.11-.4.34-.81,0-.04-.02-.07-.07-.07v.13h-.13c.18-.49.27-.81.27-.94v-.4h-.13l.07-.4h.07v.13h.07v-.94l-.07.07v-.13h.07v-.07h-.07v-.4h-.07v-.07c0-.13.04-.2.13-.2l-.07.2h.07v-.13l.13.13v-.4l-.13.13h-.07c0-.22.02-.33.07-.33-.05-.09-.07-.18-.07-.27.18-.13.27-.38.27-.74v-1.07h-.07v.13h-.13c0-.54.09-.81.27-.81v-.2l-.34.27v-.13c.09,0,.18-.11.27-.34l-.07-.13.07-.67c-.05-.09-.07-.16-.07-.2h.07c-.09-.09-.13-.2-.13-.34l.13.07v-.07s-.07-.04-.07-.13c.09,0,.13-.02.13-.07v-.34l-.07-.13s.07-.04.07-.13h-.13v-.13h.13v-.27s-.05-.07-.13-.07l.07-.34-.13-.13v-.4c.13-.13.25-.4.34-.81.04,0,.16-.04.34-.13,0-.04-.02-.07-.07-.07.04-.27.11-.96.2-2.08-.05-.13-.09-.2-.13-.2.04-.49.11-.83.2-1.01h-.07v-.13h.13s-.02-.07-.07-.07c.04-.85.18-2.03.4-3.56v-.2s.09-.24.13-.74c-.05-.04-.07-.16-.07-.34.04-.09.07-.16.07-.2-.09.09-.16.13-.2.13l.27-.74c0-.36.04-.54.13-.54l-.13-.13.13-.34s-.05-.07-.13-.07c.31-2.95.83-4.92,1.54-5.9.27-.71.4-1.18.4-1.41.09,0,.13-.07.13-.2h.6l-.07-.07c.09,0,.13-.11.13-.34-.09-.04-.27-.4-.54-1.07.04-.04.07-.11.07-.2-.18-.45-.31-1.07-.4-1.88.22,0,.42.05.6.13-.18-.22-.27-.4-.27-.54.45.09.76.13.94.13h1.34c2.55,0,5.14-.56,7.78-1.68.04,0,.31-.07.81-.2v.07c.94-.22,1.72-.51,2.35-.87.76-.13,1.27-.4,1.54-.81,0-.18.31-.27.94-.27,0-.04.31-.2.94-.47h.13c0-.13.22-.27.67-.4l.27.07c0-.13.07-.22.2-.27h.54c.09,0,.13.05.13.13l.4-.07c.27.05.71.34,1.34.87,1.03.31,1.59.58,1.68.81.36,0,.74.25,1.14.74.27,0,.81.29,1.61.87.18,0,.31.2.4.6.13,0,.22.18.27.54.27.13.58.6.94,1.41v.34l.07.4s-.09.22-.27.54c0,.36.29.58.87.67,0,.09.11.13.34.13v.27c0,.27-.25.4-.74.4-.13.27-.22.58-.27.94h-.47s-.18-.11-.4-.34v-.07l.07-.07-.13-.07h-.13l.13.2v.07c-.09.22-.22.34-.4.34-.13-.09-.27-.13-.4-.13,0,.18-.02.27-.07.27l.4.47c0,.22-.02.34-.07.34s-.43-.11-1.14-.34c-.13,0-.34.05-.6.13-.05-.04-.11-.07-.2-.07l-.07.13c.09,0,.13.05.13.13h-.07c-.49-.27-.92-.42-1.27-.47l.07.2c-.49,0-2.19.54-5.1,1.61v-.07c0,.09-.45.22-1.34.4l-1.54.81c0,.13.22.25.67.34,0,.63-.83,1.01-2.48,1.14-.18,0-.31-.07-.4-.2,0-.04.02-.2.07-.47-.13-.09-.27-.13-.4-.13h-.67c-.22.05-.34.29-.34.74l.07.47c-.05.18-.07.34-.07.47l.07.13-.07.13.13.67c-.05.27-.07.49-.07.67l.07.13-.27,2.48v.07c3.13-.54,5.32-1.1,6.57-1.68,0-.04.22-.13.67-.27v-.13c.09.05.16.07.2.07,0-.09.22-.18.67-.27l.27.2c.04-.13.07-.22.07-.27.09,0,.92.58,2.48,1.74l1.54.81c.81.4,1.34.81,1.61,1.21.22.05.63.58,1.21,1.61.04,0,.2.16.47.47-.09.09-.13.2-.13.34.22,0,.34.16.34.47-.27.67-.4,1.21-.4,1.61.18,0,.27.18.27.54,0,.09-.18.31-.54.67l-.13.34c.04.22.07.43.07.6-.4.31-.65.6-.74.87-.05.05-.09.07-.13.07-.31,0-.78-.18-1.41-.54l-.07.13s.07.09.07.13l-.27.2c-.18,0-.4-.07-.67-.2-.05.05-.13.07-.27.07,0-.09-.18-.16-.54-.2h-.54l.07.13v.07h-.34v.07c-.13,0-.38-.04-.74-.13-1.34.45-3.33.85-5.97,1.21,0,.05-.07.09-.2.13l.13.2c0,.4-.4.6-1.21.6,0,.09-.2.13-.6.13l-.47-.07v-.13c.13-.18.2-.31.2-.4h-.13v-.13c.18,0,.27.05.27.13.13-.09.45-.18.94-.27v-.07c-.13,0-.2-.07-.2-.2h-.27c-.94.27-1.5.4-1.68.4v-.07s-.07.02-.07.07l-.4-.07c-.05.27-.13.4-.27.4h-.2v-.2l-.27.2h-.13c-.09,0-.13-.07-.13-.2.31-.04.51-.07.6-.07,0,.05.02.07.07.07.09,0,.13-.09.13-.27-.13,0-.29-.02-.47-.07,0,.05-.31.16-.94.34-.18.13-.29.38-.34.74l.07.13c0,.67-.02,1.01-.07,1.01v.07c-.13,1.12-.27,2.62-.4,4.5l.07.07c-.09,1.21-.18,2.08-.27,2.62h.13v.2c-.18.54-.27.83-.27.87.04.05.11.07.2.07v.07c-.13,0-.27.49-.4,1.48l.07.13c-.17.39-.39,1.54-.65,3.42h20.41c.32,0,.62-.04.93-.09.13.03.31.02.56-.08.13-.06.23-.11.31-.15,2.2-.76,3.81-2.83,3.81-5.28v-.06s0-.01.01-.02c0-.14,0-.29-.01-.43v-24.24s.06,0,.1.06l-.1-.07v-1.1c.41.26.96.9.92-.76-.26,1.42-.96.23-.88-.83,0,.02-.02.03-.04.04v-.64c.27.75.48-.27.42-1.28-.02.89-.24,1.37-.42,1.23v-1.3c.02.12.06.23.15.33.48.18.52-2.84.81-4.03-.07-1.04-.22-1.02-.49-1.34.27-.26.35-1.32.62-1.58-.38-2.16.34-3.29-.07-5.41ZM21.06,46.37v.2c0,.18-.07.29-.2.34.04-.22.07-.4.07-.54h.13ZM21.19,44.22v.07l-.07.13h-.07v-.2h.13ZM57.49,21.06v-1.25c.36.28.07.77,0,1.25Z"/>
    <path class="cls-1" d="M21.53,41.67l-.2.07v.13c.13,0,.2-.07.2-.2Z"/>
    <path class="cls-1" d="M22.6,42.14v-.34h-.07c0,.72-.02,1.07-.07,1.07v.2c0,.18-.09.27-.27.27.09-.81.16-1.21.2-1.21h-.07c.09-.49.13-.78.13-.87,0-.36.02-.54.07-.54l-.07-.13c.04-.09.09-.13.13-.13,0,.22.02.34.07.34l-.07.13v.27h.07l.6-7.25c-.05-.09-.07-.16-.07-.2h.07s-.02-.07-.07-.07l.07-.47c0-.54-.13-.81-.4-.81-.05,0-.07.02-.07.07l-.34.81c0,.18.04.27.13.27,0,.09-.05.13-.13.13,0,.05.02.11.07.2-.09,1.48-.2,2.21-.34,2.21,0,.13-.07.2-.2.2l.07.13c-.05.09-.09.29-.13.6l.07.2-.13.34h.07c0-.09.04-.13.13-.13,0,.13.04.2.13.2v.13c-.22,0-.34.11-.34.34l-.13-.07c-.09,0-.13.02-.13.07.18,0,.27.05.27.13l.27-.2h.07v.34c0,.09-.02.13-.07.13l.07.2c-.13.13-.2.27-.2.4h.13c-.05.58-.07,1.1-.07,1.54,0,.09-.02.13-.07.13,0,.05.02.07.07.07l-.07.47c0,.09.02.18.07.27-.05.05-.07.13-.07.27h.13v.27h-.13l.07.34s-.09.07-.13.2c0,.05.02.07.07.07-.09.54-.18.92-.27,1.14.04.05.07.11.07.2h-.07l.07.07-.07.27.07.07c-.05.31-.13.51-.27.6v.2h.07v.27l-.07.2v.07l.07-.07h.13c-.13.27-.2.43-.2.47l.07.13c-.13.4-.22.81-.27,1.21.09,0,.18.13.27.4v.4c-.18,0-.27.2-.27.6l.2-.07c-.13.54-.25.8-.34.8.04.13.11.2.2.2l-.07.47c.04.18.11.27.2.27-.09.36-.2.63-.34.81.18-.09.29-.13.34-.13v.13c-.22.18-.38.38-.47.6,0,.27.16.51.47.74,0-.13.07-.2.2-.2l-.13-.13.13-.13h-.2c0-.22.07-.34.2-.34l-.2-.27c.13-.4.29-1.48.47-3.22v-.07h.13l.07.34-.07.34s.02.07.07.07c.18-1.97.31-4.32.4-7.04ZM23.21,33.96v.2c-.09,0-.13-.04-.13-.13,0-.04.04-.07.13-.07ZM23,34.43s.07-.04.07-.13l.13.13s-.07.05-.07.13h-.13v-.13ZM22.94,35.1h.13v.34h-.13v-.34ZM22.13,45.5c.04-.13.07-.27.07-.4h-.07c.04-.22.07-.42.07-.6h.13v.47c0,.09-.05.13-.13.13h.13c-.05.49-.07.78-.07.87h-.13c0-.27.02-.4.07-.4l-.07-.07ZM22.13,46.03h.13s-.02.07-.07.07l.07.13v.13h-.13v-.34ZM22.07,46.64c0-.09.04-.13.13-.13h.07c0,.27-.05.49-.13.67.04,0,.07.02.07.07h-.13v-.6ZM22.2,47.44v.2c-.09,0-.13-.07-.13-.2h.13ZM22,48.38c.04-.31.11-.47.2-.47h.07l-.07.07v.4h-.2Z"/>
  </g>
</svg>