<?xml version="1.0" encoding="UTF-8"?>
<svg id="_圖層_1" data-name=" 圖層 1" xmlns="http://www.w3.org/2000/svg" version="1.1" viewBox="0 0 60 60">
  <defs>
    <style>
      .cls-1 {
        fill: #000;
      }

      .cls-1, .cls-2 {
        stroke-width: 0px;
      }

      .cls-2 {
        fill: #fff;
      }
    </style>
  </defs>
  <polygon class="cls-1" points="23.6 3.4 26.2 3 21.8 3.2 23.6 3.4"/>
  <path class="cls-1" d="M39.8,1.8h.1s0,0-.1,0h0s0,0,0,0Z"/>
  <path class="cls-1" d="M42.6,1.7c-.8,0-1.8,0-2.7,0,.9.2,1.5,0,2.7,0Z"/>
  <path class="cls-1" d="M38.3,1.9s-1.5.3-2.6.6c1.6-.3,4.5.2,4.1-.7-.8,0-1.4,0-1.7.2h.1c0,0,0,0,0,0Z"/>
  <path class="cls-1" d="M39.4,2.5c.5,0,1.8-.3,2,.1,1.8,0-1-.4.7-.4.5,0-2.5,0-2.7.2h0Z"/>
  <path class="cls-1" d="M50.1,2.6h-1.6c.5-.5,2-.1,2.2-.4,0-.1-.9-.2-1.2-.3-.3.6-2.1,0-1.3.9.5,0,1.1,0,1.9,0h0Z"/>
  <path class="cls-1" d="M47.1,2.6c-.4-.2-.2-.4-1.7-.4l-.6.5c1,0,1.7,0,2.3,0Z"/>
  <path class="cls-1" d="M48.3,2.7h0c-.4,0-.8,0-1.1,0,.2,0,.5,0,1.1,0h0Z"/>
  <path class="cls-1" d="M49.6,1.8s0,0,0-.1c-.2,0-.2,0,0,.1Z"/>
  <path class="cls-2" d="M58.6,10.2c0,.6.2-1,0-1v1h0Z"/>
  <path class="cls-2" d="M57,5c.2.3.4.6.6.9.2.4.3.7.5,1.1-.2-.7-.5-1.4-1-2.1h0Z"/>
  <path class="cls-1" d="M56.3,4.3c0,.2-.1.2-.6-.1-.1-.3-.3-.6-.5-.9-.8-.2-1.6-.3-2.4-.2.9,0,1.8.4,2.3.8.6.4,1,.9,1.4.7.1.3.3.6.4.9,0-.2,0-.4,0-.6-.3-.5-.7-.9-1-1.2.2.2.3.4.3.5h0Z"/>
  <path class="cls-1" d="M55.7,3.5c0,0,.2.2.3.3,0,0-.2-.2-.3-.3Z"/>
  <path class="cls-1" d="M54.8,2.5c-.7-.3-1.1-.4-1.3-.4s-.2,0-.1.2c0,0,0,.2-.2.2h0c.7.1,1.4.3,2,.6,0-.2-.2-.4-.3-.6h0Z"/>
  <path class="cls-1" d="M52.7,2.5c.2,0,.3,0,.4,0-.4,0-.9-.1-1.3-.1.4,0,.7,0,.9,0h0Z"/>
  <path class="cls-1" d="M34.8,2.7s0,0,0,0c.2,0,.3,0,0,0Z"/>
  <path class="cls-2" d="M14.3,57.3c.4,0,1.4-.2,2.2,0-.7,0-1.9-.4-2.2,0Z"/>
  <path class="cls-2" d="M14.4,59.1h0c0,0-.2,0-.4,0h.4Z"/>
  <path class="cls-2" d="M14.4,58.8v.2c.2,0,.3-.1,0-.2Z"/>
  <path class="cls-2" d="M11.4,59h1.5c0,.3,0,.5-1,.5.2.1,1.1,0,1.5-.1h-.3c.2-.1.6-.2.9-.3-1.3,0-2.4-.8-2.6,0h0Z"/>
  <path class="cls-2" d="M10.4,59c-.1,0-.4,0-.6,0-.4,0-.8,0-1.2,0,.2,0,.5,0,.8.1.3,0,.6,0,.9,0,.4,0,.6-.2.4-.3h-.4c0,0,0,0,0,0Z"/>
  <path class="cls-2" d="M7.4,58s-.2,0-.4-.1c-.4-.2-1-.5-1.2-.6.5.4.8.6,1,.7.2,0,.3.1.4,0,.2,0,.2-.2.9,0-.4-.1-.8-.3-1.1-.4.3.2.4.2.3.3h0Z"/>
  <path class="cls-2" d="M8.2,58.2c.2,0,.4,0,.6.1-.2,0-.4,0-.6-.1Z"/>
  <path class="cls-2" d="M24.9,56.7v-.2c-.2,0-.2,0,0,.2Z"/>
  <path class="cls-2" d="M3.4,53.8s0,0,0-.2c0-.2-.2-.4-.2-.6,0,.2.2.5.3.7h0Z"/>
  <path class="cls-2" d="M2.2,47.6h0s0,0,0,0Z"/>
  <g>
    <path class="cls-2" d="M1.3,41v.3c.2,0,.4.1.7.2h0c-.2-.2-.5-.4-.7-.5Z"/>
    <path class="cls-2" d="M2.2,49.4c0-.9-.1-1.6,0-1.8h0c0,0-.3-3.7-.3-3.7h.5c-.2,0-.3-.3-.4-.7-.2,0-.4,0-.6-.2,0,.4,0,.8.1,1.1l.3-.5c.2,2.8-.2,5.5,0,7.1.2-1,.3-.7.4,0,0,.2,0,.5,0,.8,0,.3,0,.6.2.8,0,.3.1.5.2.7,0,.2.2.4.2.5-.2-.7-.4-1.5-.5-2.4,0-.6,0-1.3-.1-1.8h0Z"/>
    <path class="cls-2" d="M2.2,7c.5,0,1.1,0,1.6,0,0-.1.1-.2.2-.3,0,.3,0,.2.2,0,0-.5.2-1.3.7-2,.5-.7,1.3-1.5,2.2-1.8-.2.2-.3.4-.5.6.7-.4,1.4-.8,2.2-.9.4,0,.8-.2,1.2-.2h.6s.5,0,.5,0c1.3,0,2.6,0,3.8,0-.7-.2,0-.5,1.1-.5,1.6.1-.5.2.2.4,1,.5,3.9-.2,5-.2-.4.1,3.1.3,1,.5,2.5.1,4.4-.6,6,0,.2-.2.9-.5,1.6-.6v.5s.8-.3.8-.3c1.7,0,2.5.9,4.3.5-.3,0-1,0-1-.2.2-.4,3.4-.5,2.8-1l-1.4.3c.5-.4-1.4-.3-1-.5l-3.9.2v-.4c0,0,.8.2.8.2,1.1-.8-1.9,0-3-.4v.3c-3.4-.3-1.4-.3-4.1-.5l-.8.3c-.1,0,2.5-.4,2.4,0-1.8.3-4.2.2-6.1.6l1.5-.8c-.6.5-1.8-.4-3.7-.3l1.6.2c-1.3.7-4.5,0-6.6.4.6,0,1.2,0,1.3.2-.5.2-1.9,0-2.7,0,.3-.8,5-.4,4.5-1-1.2,0-2.3.2-3.3.4-.5.1-1,.2-1.4.2-.1,0-.3,0-.4,0-.1,0-.3,0-.4,0-.3,0-.6,0-.8.1.3-.1.6-.2.8-.4h.4c.1-.2.3-.2.4-.3h-.4c0,0-.4.1-.4.1-.3,0-.6.1-.9.2h.5c-.4.2-.9.3-1.5.4-.6.2-1.3.4-1.9.8.2-.3.4-.6.6-.9-.8.4-1.6.9-2.2,1.5h.3c-1.2,1.1-2,2.5-2.5,4h0Z"/>
    <path class="cls-2" d="M15.4,34.9c.2-2.6-1.3-4.4-3.9-4.4-2.2,0-4.3.5-6.3,1-1,.3-2,.6-3,1,0,.8-.2,1.8-.3,2.5l-.4-1c0,1.9-.1,4.1-.2,6.1.2.1.5.2.7.3,0-.7,0-1.2-.3-1,0-1,.3-1.5.6-1.3l-.3-2.9c.2-.3.6.3.6.6,0,1.2.4,3,0,4.2.2.9.5-.7.6.9.5.2.9.4,1.4.6.2,0,.4.2.7.2,0-.3-.3-.6-.5-.9-.2-.3-.3-.6-.5-.9,0,0,0-.2,0-.3,0,0,.2,0,.3,0,.1,0,.3.1.4.2.3.2.6.5.9.7,3.2,2.4,6.7,2.9,10.4,1.9,1.1-.3,2.2-.7,3.4-1-.7-.3-1.4-.5-2-.8v-.2c2.2-.3,4.4,0,6.6-.6-.5-.3-1-.3-1.6-.4-.1,0-.4,0-.4-.2s.2-.2.4-.2c1.2-.2,2.4-.4,3.6-.5.1,0,.3,0,.4,0,.2,0,.4-.2.4-.5,0-.3-.3-.2-.5-.2-.7,0-1.4,0-2,0,0,0-.1,0-.2,0,0-.3.2-.2.4-.2,1.4-.3,2.9-.7,4.3-1,.9-.2,1.3-1,1.9-1.6.2-.2-.1-.3-.3-.3-1.1-.5-2.3-.5-3.5-.5-5.1.4-9.4,2.7-13.1,6.2,0,0-.1.1-.2.2-.1-.2,0-.3,0-.4.7-1.7,1.3-3.3,1.4-5.2h0Z"/>
    <path class="cls-2" d="M46.5,25.1l.7-.2c0,0,0-.1,0-.2l-1.9-.3.8.7c0,0,.2.1.3,0Z"/>
    <path class="cls-2" d="M58.5,9.4c0,0,0-.1.1-.1v-.2h0c-.1-.5-.3-1.3-.6-2,0,.2,0,.4,0,.5,0,.9,0,1.6-.3,2.2-.1.4-.2.8-.3,1.1v-1.6c0-.2,0-.3,0-.3-.1-2.9-2.6-5.3-5.6-5.3h-12.1v-.2s-.1,0-.2.2h-1.8c-.9-.2-1.4-.2-1.8,0h-2.1c0,0,0,0,0-.1,0,0-.1,0-.1.1h-2.3c0,0,.2-.2,1-.3-2.3.1-4.1,0-6-.2.6.2.8.1,1.6.2-1,0-2.1.1-3.3.2h-2.6l.2-.2c-1.2-.4-4.4-.2-7.1-.3l1.7.2c0,.1,0,.2.2.3h-2.8c-.7-.2-1.1-.5-2-.3.9.2,1,.3.9.3h-1.7c0-.2,0-.3-.4-.4-.9.2.7.2.4.4h-.6c-.8-.3-1.1,0-1.4,0,0,0,0,0,0,0-.5,0-.9.3-1.4.5,0,0-.1,0-.2,0,.1-.1.3-.3.4-.4.1-.1.3-.2.5-.4-1.2.5-2.4,1.4-3.1,2.8-.2.3-.3.6-.4.8,1.7,0,3.4.2,5.1.3,5.4.4,10.8,1.1,16,2.6,3.8,1.1,7.5,2.5,11,4.2.7.3,1.4.6,2.1.9.5.2,1,.2,1.4,0,.3-.1.5,0,.6.3.2.7.6,1.3,1.1,1.8.1.1.2.2.2.4,0,.7,0,1.5.2,2.3-.3-.3-.4-.5-.4-.7-.2-.7-.7-1.2-1.1-1.8-.5-.5-.9-.5-1.2.2,0,.2-.1.4-.3.6-.7,1-.7,2.1-.2,3.2,0,.1.1.2,0,.4-.3-.2-.5-.5-.6-.8-.2-.4-.4-.3-.5,0-.7,1.5-1.4,3.1-2.1,4.6-.4.9-.8,1.8-1.2,2.6-.3.7.2,2.3.8,2.7.4.2.8-.1,1.3-.1,0-.2-.4-.1-.4-.4.6-.1,1.2-.3,1.9-.4-.2-.3-.6-.3-.5-.6,0-.3.5-.2.7-.3.2,0,.3-.1.5-.2-.1-.2-.3,0-.5-.2,1.3-1,3-1.2,4-2.7-1.7,0-3.2,0-4.8-.2,1.8-.4,3.6-.6,5.4-1.1-.4-.3-1.1-.4-2.2-.5-.7,0-1.5,0-2.2-.2.5-.3,1.1-.4,1.7-.4,1.7-.1,3.4-.2,5.1-.1.3,0,.5.1.8.2.9.4,1.8.9,2.9,1,.4,0,1,1.1.8,1.4,0,0-.1.2-.2.1-.2-.4-.6-.2-.8-.4-.6-.5-1.6-.3-2,.3,0,.1-.2.3,0,.4.4.4.7.9,1.3.9.2,0,.5-.1.6.1,0,.2-.1.2-.2.3-.2.2-.4.5-.7.2-.4-.4-1-.4-1.5-.5-.1,0-.3,0-.5,0-.5.1-1.7,1.6-1.7,2.1,0,1.3,0,2.5-.9,3.7,1-.1,1.8-.2,2.7-.3.4,0,.8,0,1.2-.2.2,0,.4,0,.5.1.5.4,1.1.9,1.6,1.3.2.1.2.3.1.5-.2.4-.3.8-.5,1.3-.2-.6-.3-.5-.6-.2,0,.1-.2.2-.3.3-.1.1-.2.4-.5.3-.2,0,0-.3,0-.5,0-.2,0-.3-.2-.4-.2-.1-.3,0-.4.2-.2.1-.4.4-.7.5-.1-.3,0-.5,0-.8,0-.4,0-.5-.5-.3-1,.4-2.1.7-3.1,1.2-.3.2-.8.3-1.2.2-.7-.1-1.4,0-2,0-.3,0-.5,0-.7.2-.9.6-1.7,1.3-2.6,1.9-.3.2-.3.4-.3.7.1,1.5-.1,2.9-1.1,4.2-.9,1-1.8,2-3,2.6-.7.4-1.6.3-2.3.3-1,0-1.5.7-1.9,1.4-.2.4,0,.3.3.3,2.3-.3,4.5,0,6.7.6,4.1,1.3,7.3,3.8,9.4,7.4h7.5c.3,0,.6,0,.9,0,.1,0,.3,0,.6,0,.1,0,.2-.1.3-.2,2.2-.8,3.8-2.8,3.8-5.3h0c0,0,0,0,0,0,0-.1,0-.3,0-.4v-24.2s0,0,0,0h0v-1.2c.4.3,1,.9.9-.8-.3,1.4-1,.2-.9-.8,0,0,0,0,0,0v-.6c.3.8.5-.3.4-1.3,0,.9-.2,1.4-.4,1.2v-1.3c0,.1,0,.2.2.3.5.2.5-2.8.8-4,0-1-.2-1-.5-1.3.3-.3.3-1.3.6-1.6-.4-2.2.3-3.3,0-5.4h0ZM57.5,21.1v-1.2c.4.3,0,.8,0,1.2Z"/>
    <path class="cls-2" d="M16.1,56.4c.3,0,0,.3,0,.5,1.7-3,4-5.3,7.2-6.8.6-.3.9-.6,1-1.3.1-.7.3-1.4.4-2.1,0-.6.5-.8.9-1.1.2-.2.4,0,.5.1.5.3,1.1.3,1.5,0,.5-.5.9-1,1-1.7.1-.7.3-1.4.7-2.1-.3,0-.5.1-.7.2-3.7,1.9-7.6,3.2-11.8,3.7-3.9.5-7.7,0-11.4-1.3-.8-.3-1.7-.6-2.5-.9,0,1.1,0,2.2,0,3.3s0,1.8,0,2.6c0,.4,0,.8,0,1.2,0,0,0,.2,0,.3s0,.2,0,.3c0,.2,0,.5,0,.7,0-.4,0-.8,0-1,0-.2,0-.1.2.3,0,.7,0,1.5.2,2.3.4.9,1,1.4,1.5,1.8.5.4.9.7,1.4,1.2.3,0-.4-.5-1-1.2-.3-.4-.6-.8-.8-1.3s-.3-.8-.4-1.1c.7.6,1,1.3,1.5,2.1.4.8,1.2,1.5,2.1,1.5.4-.1-.5-.5-1.3-1.1-.4-.3-.7-.6-.8-.9-.1-.2,0-.3.3-.2.4.6.9,1,1.5,1.5-.4-.7-1.1-1.2-1.6-1.7-.5-.5-.8-1.1-.6-1.5.3.9.9,1.6,1.6,2.2,0,0,0,.1,0,.1,0,0,0,0,0,0,.9.7,2.1,1.2,3.4,1.2h2c0,.2-.6.4-1.2.5-.2,0-.4,0-.5,0-.2,0-.4,0-.6,0-.4,0-.8,0-1,0,.2,0,.5.2.8.2.1,0,.3,0,.5,0,.1,0,.3,0,.4,0,.6,0,1.2,0,1.6,0l-1.5-.2c1.7,0,1.8-.5,2.8-.6h2.4Z"/>
    <path class="cls-2" d="M33.4,51c-5-.2-8.8,1.7-11.6,5.7.6-.1,1.2-.3,1.9-.4h1v.2c.2,0,1.5-.1,3.3-.2h15.9c-2.7-3.3-6.2-5.1-10.5-5.3h0Z"/>
  </g>
</svg>