<?xml version="1.0" encoding="UTF-8"?>
<svg id="_圖層_1" data-name="圖層 1" xmlns="http://www.w3.org/2000/svg" version="1.1" viewBox="0 0 60 60">
  <defs>
    <style>
      .cls-1 {
        fill: #000;
        stroke-width: 0px;
      }
    </style>
  </defs>
  <polygon class="cls-1" points="23.63 3.42 26.22 2.95 21.8 3.2 23.63 3.42"/>
  <path class="cls-1" d="M39.8,1.77s.07,0,.11,0c-.04,0-.08,0-.12-.02,0,0,0,.02,0,.03Z"/>
  <path class="cls-1" d="M42.57,1.71c-.82.03-1.81.03-2.66.06.94.2,1.54.07,2.66-.06Z"/>
  <path class="cls-1" d="M38.27,1.86s-1.53.26-2.61.61c1.64-.35,4.55.17,4.14-.7-.78.03-1.42.08-1.65.17l.13-.09Z"/>
  <path class="cls-1" d="M39.37,2.47c.45.09,1.77-.29,1.96.13,1.85.07-1.01-.4.73-.39.47-.06-2.55.01-2.69.25Z"/>
  <path class="cls-1" d="M50.14,2.57l-1.62-.1c.5-.36,1.97-.02,2.24-.35-.07-.15-.91-.25-1.16-.34-.35.64-2.09-.01-1.33.85.51.01,1.08,0,1.88-.06Z"/>
  <path class="cls-1" d="M47.14,2.58c-.41-.15-.19-.43-1.72-.4l-.62.45c1.05-.1,1.72-.08,2.34-.05Z"/>
  <path class="cls-1" d="M48.28,2.65s0,0-.01-.01c-.39-.01-.75-.03-1.12-.05.18.06.49.1,1.13.07Z"/>
  <path class="cls-1" d="M49.6,1.78s.04-.07.05-.12c-.17.04-.15.08-.05.12Z"/>
  <path class="cls-1" d="M58.63,10.24c-.05.61.16-.98-.01-1.01,0,.15,0,.28,0,.43v.58Z"/>
  <path class="cls-1" d="M56.95,4.96c.2.29.4.6.57.93.19.36.34.73.48,1.11-.16-.7-.48-1.43-1.05-2.07,0,0,0,.02,0,.02Z"/>
  <path class="cls-1" d="M56.32,4.33c.03.18-.11.16-.57-.13-.14-.29-.31-.58-.51-.86-.81-.23-1.64-.29-2.4-.2.89-.08,1.77.39,2.35.84.6.45.98.86,1.39.72.14.29.27.57.36.86,0-.19.02-.4,0-.61-.33-.47-.67-.86-.96-1.16.19.21.31.41.33.53Z"/>
  <path class="cls-1" d="M55.68,3.48c.09.09.2.2.31.32-.09-.1-.19-.21-.31-.32Z"/>
  <path class="cls-1" d="M54.75,2.52c-.71-.35-1.09-.4-1.26-.4-.17,0-.15.09-.14.18,0,.09,0,.16-.19.18-.02,0-.05,0-.07,0,.68.12,1.36.33,1.98.64-.1-.19-.2-.39-.32-.59Z"/>
  <path class="cls-1" d="M52.69,2.45c.18.02.3.03.4.03-.44-.08-.88-.12-1.31-.11.36.03.69.05.9.08Z"/>
  <path class="cls-1" d="M34.83,2.65s-.06,0-.09.02c.17-.02.26-.04.09-.02Z"/>
  <path class="cls-1" d="M14.3,57.31c.45.09,1.41-.17,2.2-.05-.69-.06-1.93-.43-2.2.05Z"/>
  <path class="cls-1" d="M14.35,59.08v-.09c-.09.03-.22.06-.37.09.12,0,.25,0,.37,0Z"/>
  <path class="cls-1" d="M14.38,58.78l-.02.22c.21-.06.28-.13.02-.22Z"/>
  <path class="cls-1" d="M11.35,59l1.5.04c-.03.3-.04.45-.97.42.22.12,1.05-.05,1.52-.11l-.34-.03c.2-.09.59-.16.92-.23-1.34-.05-2.35-.8-2.64-.08Z"/>
  <path class="cls-1" d="M10.4,58.95c-.15.03-.37.06-.55.08-.39.06-.78.05-1.18.06.22.04.51.08.82.12.3.01.65.02.9,0,.37-.05.61-.16.4-.35l-.39.1Z"/>
  <path class="cls-1" d="M7.4,58.05s-.19-.03-.39-.11c-.41-.15-.98-.48-1.23-.58.48.4.82.6,1.05.69.23.1.34.11.43.09.18-.05.25-.15.93.02-.4-.13-.78-.28-1.11-.36.26.18.36.24.32.26Z"/>
  <path class="cls-1" d="M8.19,58.15c.19.05.39.1.59.13-.24-.06-.42-.1-.59-.13Z"/>
  <path class="cls-1" d="M24.9,56.68l-.1-.16c-.08.05-.09.1.1.16Z"/>
  <path class="cls-1" d="M3.41,53.8s-.03-.1-.04-.15c-.08-.18-.16-.37-.24-.59.09.25.17.5.28.73Z"/>
  <path class="cls-1" d="M2.15,47.6l.02-.04s-.02.01-.02.04Z"/>
  <g>
    <path class="cls-1" d="M1.31,40.98c0,.12,0,.23,0,.35.22.05.44.11.67.15,0-.01,0-.03,0-.04-.23-.16-.46-.31-.67-.46Z"/>
    <path class="cls-1" d="M2.24,49.39c-.06-.91-.13-1.62-.1-1.79l-.04.07-.31-3.74.45.04c-.22-.05-.32-.33-.35-.71-.18-.06-.37-.1-.55-.16.03.39.06.78.12,1.14l.3-.55c.19,2.8-.22,5.53.04,7.08.25-1.03.33-.68.37.03.02.25.04.53.07.81.05.28.09.57.15.84.07.26.14.51.21.71.08.2.15.36.21.45-.23-.71-.41-1.54-.47-2.38-.04-.64-.07-1.28-.11-1.85Z"/>
    <path class="cls-1" d="M2.19,6.96c.53.02,1.06.05,1.59.08.06-.11.12-.22.19-.34.06.35.03.17.24-.03.05-.52.22-1.28.71-2.02.47-.74,1.27-1.46,2.24-1.8-.19.19-.35.42-.51.63.65-.43,1.4-.75,2.18-.92.39-.08.79-.15,1.19-.15h.3s.25-.01.25-.01h.49c1.3.01,2.58,0,3.75-.06-.68-.21.04-.45,1.09-.5,1.61.1-.48.21.19.42.99.55,3.85-.25,5.01-.24-.36.12,3.1.29.99.55,2.54.14,4.35-.6,6.03,0,.25-.18.86-.48,1.56-.56l-.05.45.85-.33c1.7.01,2.54.91,4.26.53-.33.03-1,.06-1.05-.17.15-.39,3.41-.49,2.76-1.01l-1.42.32c.5-.36-1.36-.28-.99-.55l-3.85.25-.08-.36.91.19c1.12-.81-1.86.08-2.97-.38l-.03.3c-3.33-.26-1.37-.28-4.12-.54l-.84.33c-.12.09,2.47-.37,2.43.08-1.77.29-4.19.21-6.08.59l1.47-.77c-.62.45-1.82-.37-3.68-.29l1.6.25c-1.34.68-4.53.03-6.65.44.58,0,1.16,0,1.26.22-.49.21-1.86.08-2.66-.05.31-.78,5.02-.39,4.5-.99-1.21-.04-2.33.17-3.34.37-.5.1-.98.19-1.42.25-.14.02-.28.03-.42.05-.15.02-.3.03-.45.04-.29.04-.57.08-.84.1.27-.12.55-.24.84-.35l.44-.14c.14-.04.33-.09.41-.12l-.4.05-.44.06c-.29.05-.58.13-.86.19l.52-.05c-.35.22-.88.31-1.5.48-.61.16-1.31.4-1.86.83.18-.29.37-.59.6-.85-.81.4-1.56.91-2.2,1.54l.33-.14c-1.22,1.2-2.02,2.63-2.45,4.14Z"/>
    <path class="cls-1" d="M15.45,34.94c.22-2.58-1.29-4.37-3.89-4.39-2.16-.02-4.26.46-6.32,1.04-1.03.29-2.03.64-3.02,1.01,0,.85-.19,1.76-.3,2.53l-.42-.97c.06,1.93-.11,4.07-.18,6.11.25.11.49.22.74.33.06-.74.05-1.23-.27-.97-.05-1.05.34-1.47.58-1.33l-.28-2.92c.18-.33.63.29.6.64,0,1.16.37,3.05-.09,4.16.25.9.46-.68.58.91.47.21.94.42,1.41.63.2.09.4.22.69.2-.07-.35-.29-.62-.46-.9-.17-.29-.35-.59-.51-.89-.05-.1-.1-.23.02-.3.06-.04.19,0,.26.03.14.06.27.14.39.23.31.22.61.45.92.67,3.16,2.39,6.67,2.9,10.44,1.89,1.11-.3,2.21-.66,3.44-1.04-.73-.29-1.35-.54-1.97-.79v-.17c2.17-.31,4.41,0,6.55-.61-.49-.32-1.05-.29-1.57-.44-.15-.04-.41-.02-.41-.23,0-.21.24-.2.4-.23,1.2-.19,2.4-.37,3.6-.55.13-.02.26-.05.39-.09.25-.07.41-.25.37-.5-.04-.27-.3-.17-.47-.17-.68-.03-1.36-.04-2.05-.06-.07,0-.13-.06-.2-.09.04-.26.25-.21.4-.25,1.44-.32,2.88-.66,4.33-.96.92-.19,1.3-1,1.88-1.56.22-.21-.15-.29-.29-.35-1.12-.54-2.31-.55-3.51-.45-5.15.43-9.42,2.69-13.07,6.25-.07.06-.14.12-.22.18-.14-.18,0-.3.06-.42.71-1.66,1.28-3.35,1.43-5.18Z"/>
    <path class="cls-1" d="M46.45,25.06l.71-.24c.08-.03.07-.15-.01-.16l-1.87-.34.84.68c.09.08.22.1.33.06Z"/>
    <path class="cls-1" d="M58.51,9.35c.05-.09.09-.12.12-.12,0-.06,0-.11,0-.18l-.05.15c-.13-.63-.3-1.41-.57-2.19.04.18.08.36.09.53.1.85-.08,1.65-.28,2.24-.12.39-.22.77-.32,1.13v-1.62c.03-.17.02-.28-.03-.33-.14-2.95-2.59-5.33-5.58-5.33h-12.12l-.04-.16s-.09.08-.19.16h-1.83c-.94-.24-1.42-.15-1.81,0h-2.13c.06-.04.09-.08.04-.11-.09.04-.12.08-.13.11h-2.3c-.04-.09.16-.18.95-.3-2.33.14-4.06-.03-6.01-.16.57.15.8.13,1.6.25-.95.01-2.13.12-3.3.21h-2.57l.19-.19c-1.24-.37-4.39-.21-7.05-.26l1.72.16c-.08.11.02.2.19.28h-2.8c-.66-.24-1.12-.5-2.03-.31.92.19,1.02.26.91.31h-1.72c0-.16-.03-.32-.45-.38-.9.17.71.25.35.38h-.62c-.76-.26-1.12-.1-1.4.08-.01,0-.03.02-.04.03-.49.1-.95.27-1.39.49-.07.01-.13.02-.2.03.14-.13.27-.27.42-.4.15-.12.31-.24.47-.36-1.15.51-2.36,1.44-3.09,2.75-.15.27-.27.56-.38.85,1.68.09,3.37.2,5.05.32,5.42.39,10.79,1.08,16.03,2.6,3.8,1.1,7.49,2.48,11.05,4.2.68.33,1.38.64,2.08.93.47.19.97.21,1.44,0,.35-.15.52-.04.64.29.25.66.58,1.28,1.13,1.75.12.1.2.23.19.39-.01.73,0,1.47.21,2.34-.29-.27-.38-.48-.43-.69-.17-.71-.65-1.24-1.09-1.78-.45-.55-.86-.47-1.15.17-.09.19-.14.4-.26.57-.69,1.03-.66,2.09-.17,3.19.05.11.14.23.04.42-.31-.19-.47-.49-.64-.77-.24-.39-.37-.34-.54.04-.69,1.54-1.4,3.07-2.1,4.61-.4.88-.81,1.76-1.2,2.64-.3.69.18,2.3.82,2.67.43.24.84-.1,1.27-.13-.06-.23-.37-.12-.42-.38.61-.13,1.22-.27,1.86-.41-.18-.29-.6-.34-.54-.62.06-.28.45-.2.69-.31.15-.07.31-.12.49-.18-.12-.19-.35-.01-.47-.21,1.26-.95,3-1.21,3.97-2.72-1.65-.03-3.23.05-4.81-.23,1.78-.37,3.59-.62,5.38-1.08-.41-.26-1.14-.41-2.16-.54-.73-.09-1.47-.09-2.2-.17.53-.3,1.1-.36,1.66-.4,1.68-.11,3.37-.16,5.06-.15.28,0,.51.1.76.21.93.43,1.83.92,2.89.96.39.01.95,1.06.81,1.42-.03.08-.13.16-.15.12-.17-.37-.57-.17-.83-.38-.6-.48-1.56-.32-2,.29-.09.13-.2.26-.07.4.37.39.65.91,1.32.87.19-.01.46-.1.57.11.08.16-.13.25-.24.34-.21.17-.42.47-.73.22-.44-.36-.98-.39-1.5-.48-.14-.03-.31-.02-.45.02-.53.14-1.71,1.6-1.7,2.15.04,1.27-.07,2.5-.88,3.71.99-.11,1.84-.21,2.69-.31.41-.05.83-.1,1.24-.15.19-.02.38,0,.54.12.55.44,1.09.88,1.64,1.32.17.14.2.31.12.51-.16.38-.31.77-.51,1.29-.15-.61-.35-.53-.58-.19-.09.12-.2.23-.32.33-.14.12-.25.36-.45.27-.19-.08-.02-.31-.05-.47-.03-.15-.03-.33-.16-.41-.19-.12-.3.09-.44.17-.24.14-.42.39-.74.47-.13-.26.01-.52.02-.76,0-.36-.09-.51-.47-.35-1.03.43-2.12.72-3.12,1.24-.35.18-.78.29-1.16.22-.69-.14-1.36,0-2.04.03-.26,0-.47.1-.68.25-.87.64-1.74,1.29-2.62,1.91-.27.19-.33.39-.3.71.14,1.52-.11,2.94-1.12,4.16-.87,1.05-1.84,1.96-3.05,2.61-.74.4-1.56.3-2.34.35-.97.06-1.48.69-1.92,1.41-.23.36.05.34.31.31,2.27-.29,4.51-.1,6.7.57,4.13,1.27,7.27,3.75,9.41,7.39h7.46c.32,0,.62-.04.93-.09.13.03.31.02.56-.08.13-.06.23-.11.31-.15,2.2-.76,3.81-2.83,3.81-5.28v-.06s0-.01.01-.02c0-.14,0-.29-.01-.43v-24.24s.06,0,.1.06l-.1-.07v-1.1c.41.26.96.9.92-.76-.26,1.42-.96.23-.88-.83,0,.02-.02.03-.04.04v-.64c.27.75.48-.27.42-1.28-.02.89-.24,1.37-.42,1.23v-1.3c.02.12.06.23.15.33.48.18.52-2.84.81-4.03-.07-1.04-.22-1.02-.49-1.34.27-.26.35-1.32.62-1.58-.38-2.16.34-3.29-.07-5.41ZM57.49,21.06v-1.25c.36.28.07.77,0,1.25Z"/>
    <path class="cls-1" d="M16.09,56.36c.34.1-.05.35.05.52,1.71-2.99,4.03-5.35,7.19-6.81.59-.27.92-.62,1.03-1.28.11-.69.32-1.36.38-2.06.05-.56.52-.81.87-1.14.18-.17.35.04.5.14.46.3,1.14.29,1.51-.09.47-.47.9-1.01,1.04-1.67.15-.7.26-1.41.72-2.08-.33-.01-.5.14-.69.24-3.7,1.93-7.61,3.24-11.76,3.74-3.9.47-7.72.1-11.42-1.32-.83-.32-1.67-.63-2.52-.92-.06,1.1-.06,2.22-.06,3.3,0,.91,0,1.78-.01,2.58-.01.4-.03.79-.06,1.15,0,.08-.01.21-.01.32,0,.12,0,.23-.01.35-.02.23,0,.45.01.67,0-.39.03-.78.07-.95.04-.17.1-.12.25.34-.04.74.01,1.51.2,2.27.42.87.98,1.37,1.45,1.78.5.4.93.73,1.38,1.22.28.02-.38-.46-.99-1.23-.31-.38-.6-.84-.81-1.27-.21-.43-.35-.84-.39-1.12.74.59,1.01,1.32,1.49,2.1.45.75,1.16,1.5,2.12,1.52.45-.13-.54-.47-1.28-1.1-.37-.3-.69-.64-.81-.86-.12-.23-.07-.31.28-.17.41.56.92,1.05,1.5,1.45-.42-.67-1.06-1.15-1.56-1.71-.47-.52-.77-1.07-.58-1.45.35.87.91,1.62,1.62,2.21.05.07.09.12.1.14.05.02.07.02.09.02.94.73,2.11,1.18,3.39,1.18h2.03c-.09.21-.58.39-1.19.5-.17.03-.35.06-.54.09-.18.03-.36.04-.56.05-.39.02-.75-.04-1-.09.2.1.47.2.77.25.15.02.31.04.47.05.15,0,.29.01.43.01.58,0,1.16-.03,1.57-.04l-1.49-.19c1.66-.03,1.79-.47,2.82-.63h2.41Z"/>
    <path class="cls-1" d="M33.44,51.02c-4.96-.22-8.84,1.71-11.63,5.72.59-.13,1.2-.26,1.88-.39h1.01l.1.17c.12-.07,1.39-.12,3.18-.17h15.95c-2.74-3.26-6.21-5.14-10.5-5.34Z"/>
  </g>
</svg>