<?xml version="1.0" encoding="UTF-8"?>
<svg id="_圖層_1" data-name="圖層 1" xmlns="http://www.w3.org/2000/svg" version="1.1" viewBox="0 0 25 25">
  <defs>
    <style>
      .cls-1 {
        fill: #000;
        stroke-width: 0px;
      }
    </style>
  </defs>
  <path class="cls-1" d="M17.13,13.29c-.34-.34-.34-.9,0-1.25l7.89-7.89c.34-.34.34-.9,0-1.25l-2.38-2.38c-.34-.34-.9-.34-1.25,0l-8.62,8.62L4.16.53c-.34-.34-.9-.34-1.25,0L.53,2.91c-.34.34-.34.9,0,1.25l7.89,7.89c.34.34.34.9,0,1.25L.53,21.18c-.34.34-.34.9,0,1.25l2.38,2.38c.34.34.9.34,1.25,0l8.62-8.62,8.62,8.62c.34.34.9.34,1.25,0l2.38-2.38c.34-.34.34-.9,0-1.25l-7.89-7.89Z"/>
</svg>