<?xml version="1.0" encoding="UTF-8"?>
<svg id="_圖層_1" data-name="圖層 1" xmlns="http://www.w3.org/2000/svg" version="1.1" viewBox="0 0 25 60">
  <defs>
    <style>
      .cls-1, .cls-2 {
        fill: #c7b299;
      }

      .cls-1, .cls-2, .cls-3 {
        stroke-width: 0px;
      }

      .cls-2, .cls-3 {
        fill-rule: evenodd;
      }

      .cls-3 {
        fill: #42210b;
      }
    </style>
  </defs>
  <path class="cls-1" d="M3.11,35.39l-3.11-5.39,3.11-5.39,3.11,5.39-3.11,5.39ZM.87,30l2.24,3.89,2.24-3.89-2.24-3.89-2.24,3.89Z"/>
  <polygon class="cls-3" points="25 7.76 24.13 7.76 11.29 30 24.13 52.24 25 52.24 25 7.76"/>
  <polygon class="cls-2" points="25 51.87 24.35 51.87 11.72 30 24.35 8.13 25 8.13 25 7.38 23.92 7.38 10.86 30 23.92 52.62 25 52.62 25 51.87"/>
  <polygon class="cls-2" points="20.09 59.25 6.22 35.24 9.24 30 6.22 24.76 20.09 .75 25 .75 25 0 19.65 0 5.35 24.76 8.38 30 5.35 35.24 19.65 60 25 60 25 59.25 20.09 59.25"/>
</svg>