<?xml version="1.0" encoding="UTF-8"?>
<svg id="_圖層_1" data-name="圖層 1" xmlns="http://www.w3.org/2000/svg" version="1.1" viewBox="0 0 25 60">
  <defs>
    <style>
      .cls-1, .cls-2 {
        fill: #c7b299;
      }

      .cls-1, .cls-2, .cls-3 {
        stroke-width: 0px;
      }

      .cls-2, .cls-3 {
        fill-rule: evenodd;
      }

      .cls-3 {
        fill: #42210b;
      }
    </style>
  </defs>
  <path class="cls-1" d="M18.78,30l3.11-5.39,3.11,5.39-3.11,5.39-3.11-5.39ZM21.89,26.11l-2.24,3.89,2.24,3.89,2.24-3.89-2.24-3.89Z"/>
  <polygon class="cls-3" points="0 7.76 .87 7.76 13.71 30 .87 52.24 0 52.24 0 7.76"/>
  <polygon class="cls-2" points="0 51.87 .65 51.87 13.28 30 .65 8.13 0 8.13 0 7.38 1.08 7.38 14.14 30 1.08 52.62 0 52.62 0 51.87"/>
  <polygon class="cls-2" points="4.91 59.25 18.78 35.24 15.76 30 18.78 24.76 4.91 .75 0 .75 0 0 5.35 0 19.65 24.76 16.62 30 19.65 35.24 5.35 60 0 60 0 59.25 4.91 59.25"/>
</svg>